<?xml version="1.0" standalone="no"?>
<!DOCTYPE svg PUBLIC "-//W3C//DTD SVG 1.1//EN" "http://www.w3.org/Graphics/SVG/1.1/DTD/svg11.dtd" >
<svg xmlns="http://www.w3.org/2000/svg" xmlns:xlink="http://www.w3.org/1999/xlink" version="1.1">
<metadata>
Created by FontForge 20161003 at Thu Dec  6 16:11:01 2018
 By www-data
</metadata>
<defs>
<font id="scopevariable" horiz-adv-x="600" >
  <font-face 
    font-family="scopevariable"
    font-weight="400"
    font-stretch="normal"
    units-per-em="1000"
    panose-1="0 0 5 0 0 0 0 0 0 0"
    ascent="800"
    descent="-200"
    x-height="500"
    cap-height="700"
    bbox="-658 -217 858 999"
    underline-thickness="50"
    underline-position="-150"
    unicode-range="U+000D-FEFF"
  />
<missing-glyph 
d="M40 700h520v-700h-520v700zM500 60v580h-400v-580h400z" />
    <glyph glyph-name="f_i" unicode="fi" horiz-adv-x="555" 
d="M305 60h80v440h60v-440h80v-60h-220v60zM130 440h-100v60h100v88l94 112h115l86 -103l-39 -47l-76 90h-58l-62 -73v-67h149v-60h-149v-440h-60v440z" />
    <glyph glyph-name="f_l" unicode="fl" horiz-adv-x="511" 
d="M130 440h-100v60h100v88l94 112h195v-60h-167l-62 -73v-67h149v-60h-149v-440h-60v440zM381 640h-80v60h140v-700h-60v640z" />
    <glyph glyph-name=".notdef" 
d="M40 700h520v-700h-520v700zM500 60v580h-400v-580h400z" />
    <glyph glyph-name=".null" horiz-adv-x="0" 
 />
    <glyph glyph-name="nonmarkingreturn" unicode="&#xd;" horiz-adv-x="280" 
 />
    <glyph glyph-name="space" unicode=" " horiz-adv-x="280" 
 />
    <glyph glyph-name="exclam" unicode="!" horiz-adv-x="254" 
d="M97 700h60v-500h-60v500zM94 14q-14 14 -14 33t14 32.5t33 13.5t33 -13.5t14 -32.5t-14 -33t-33 -14t-33 14z" />
    <glyph glyph-name="quotedbl" unicode="&#x22;" horiz-adv-x="380" 
d="M220 700h60v-202h-60v202zM100 700h60v-202h-60v202z" />
    <glyph glyph-name="numbersign" unicode="#" horiz-adv-x="620" 
d="M373 660h60v-660h-60v660zM187 660h60v-660h-60v660zM50 275h520v-60h-520v60zM50 455h520v-60h-520v60z" />
    <glyph glyph-name="dollar" unicode="$" 
d="M80 106l40 46l77 -92h188l75 88v104l-57 68h-234l-89 106v148l105 126h246l89 -106l-40 -46l-77 92h-189l-74 -88v-104l57 -68h234l89 -106v-148l-105 -126h-246zM270 760h60v-820h-60v820z" />
    <glyph glyph-name="percent" unicode="%" horiz-adv-x="665" 
d="M127 509.5q-26 15.5 -41.5 41t-15.5 54.5q0 30 15.5 55.5t41 40.5t55.5 15q29 0 55 -15t41.5 -40.5t15.5 -55.5q0 -28 -16 -54t-42 -41.5t-54 -15.5q-29 0 -55 15.5zM432 0.5q-26 15.5 -41.5 41t-15.5 54.5q0 30 15.5 55.5t41 40.5t55.5 15q29 0 55 -15t41.5 -40.5
t15.5 -55.5q0 -28 -16 -54t-42 -41.5t-54 -15.5q-29 0 -55 15.5zM523 60.5q16 15.5 16 35.5q0 21 -15.5 36t-36.5 15t-36.5 -15t-15.5 -36q0 -20 15.5 -35.5t36.5 -15.5q20 0 36 15.5zM218 569.5q16 15.5 16 35.5q0 21 -15.5 36t-36.5 15t-36.5 -15t-15.5 -36
q0 -20 15.5 -35.5t36.5 -15.5q20 0 36 15.5zM587 700h78l-588 -700h-77z" />
    <glyph glyph-name="ampersand" unicode="&#x26;" horiz-adv-x="583" 
d="M95.5 40q-45.5 48 -45.5 142v49q0 83 51.5 126t151.5 43h97v130h60v-130h143v-60h-143v-196l71 -84h72v-60h-100l-63 75q-14 -29 -33 -47t-50 -27t-77 -9q-89 0 -134.5 48zM296 67q27 15 40.5 44t13.5 71v158h-97q-71 0 -107 -27.5t-36 -81.5v-49q0 -64 30.5 -97
t89.5 -33q39 0 66 15zM70 458v126l96 116h184v-59h-153l-67 -80v-79l75 -90l-52 -38z" />
    <glyph glyph-name="quotesingle" unicode="'" horiz-adv-x="260" 
d="M100 700h60v-202h-60v202z" />
    <glyph glyph-name="parenleft" unicode="(" horiz-adv-x="253" 
d="M60 -22v602l114 136l39 -46l-93 -112v-558l93 -112l-39 -46z" />
    <glyph glyph-name="parenright" unicode=")" horiz-adv-x="253" 
d="M193 -22v602l-114 136l-39 -46l93 -112v-558l-93 -112l39 -46z" />
    <glyph glyph-name="asterisk" unicode="*" horiz-adv-x="420" 
d="M229 570l46 39l125 -150l-46 -38zM20 459l125 150l46 -39l-125 -149zM20 697l46 39l125 -149l-46 -38zM145 609h130v-60h-130v60zM180 794h60v-421h-60v421zM229 587l125 149l46 -39l-125 -148z" />
    <glyph glyph-name="plus" unicode="+" 
d="M40 306h520v-60h-520v60zM270 533h60v-520h-60v520z" />
    <glyph glyph-name="comma" unicode="," horiz-adv-x="225" 
d="M30 -56l65 74v77h60v-99l-86 -99z" />
    <glyph glyph-name="hyphen" unicode="-" horiz-adv-x="420" 
d="M60 326h300v-60h-300v60z" />
    <glyph glyph-name="period" unicode="." horiz-adv-x="223" 
d="M75 7q-15 15 -15 35q0 22 15 37t36 15t36.5 -15.5t15.5 -36.5q0 -20 -16 -35t-36 -15q-21 0 -36 15z" />
    <glyph glyph-name="slash" unicode="/" horiz-adv-x="625" 
d="M567 700h78l-588 -700h-77z" />
    <glyph glyph-name="zero" unicode="0" horiz-adv-x="580" 
d="M103.5 83q-63.5 91 -63.5 267t63.5 267t186.5 91t186.5 -91t63.5 -267t-63.5 -267t-186.5 -91t-186.5 91zM432 127.5q48 75.5 48 222.5t-48 222.5t-142 75.5t-142 -75.5t-48 -222.5t48 -222.5t142 -75.5t142 75.5z" />
    <glyph glyph-name="one" unicode="1" horiz-adv-x="358" 
d="M218 640h-20l-149 -178l-39 47l160 191h108v-700h-60v640z" />
    <glyph glyph-name="two" unicode="2" horiz-adv-x="525" 
d="M50 175l140 166h158l67 78v133l-74 88h-174l-77 -92l-40 46l89 106h231l105 -126v-177l-99 -116h-158l-108 -128v-93h365v-60h-425v175z" />
    <glyph glyph-name="three" unicode="3" horiz-adv-x="515" 
d="M30 106l40 46l77 -92h184l74 88v104l-57 68h-153v60h153l57 68v104l-74 88h-154l-77 -92l-40 46l89 106h211l105 -126v-148l-63 -75l63 -77v-148l-105 -126h-241z" />
    <glyph glyph-name="four" unicode="4" horiz-adv-x="483" 
d="M50 539l148 176l40 -47l-128 -152v-256h363v-60h-423v339zM338 500h60v-500h-60v500z" />
    <glyph glyph-name="five" unicode="5" horiz-adv-x="525" 
d="M50 106l40 46l77 -92h184l74 88v104l-57 68h-288v380h335v-60h-275v-260h256l89 -106v-148l-105 -126h-241z" />
    <glyph glyph-name="six" unicode="6" horiz-adv-x="566" 
d="M70 574l105 126h241l89 -106l-40 -46l-77 92h-184l-74 -88v-362h-60v384zM126.5 41.5q-56.5 50.5 -56.5 148.5q0 57 28 100.5t78.5 67t116.5 23.5q110 0 166.5 -48.5t56.5 -142.5q0 -98 -56.5 -148.5t-166.5 -50.5t-166.5 50.5zM414.5 86.5q41.5 35.5 41.5 103.5
q0 64 -41.5 97.5t-121.5 33.5t-121.5 -33.5t-41.5 -97.5q0 -68 41.5 -103.5t121.5 -35.5t121.5 35.5z" />
    <glyph glyph-name="seven" unicode="7" horiz-adv-x="462" 
d="M30 112l342 408v120h-342v60h402v-200l-342 -408v-92h-60v112z" />
    <glyph glyph-name="eight" unicode="8" horiz-adv-x="552" 
d="M100 41.5q-60 49.5 -60 144.5q0 77 25.5 119.5t74.5 49.5q-37 13 -56 53.5t-19 105.5q0 95 53.5 144.5t157.5 49.5t157.5 -49.5t53.5 -144.5q0 -65 -19 -105.5t-56 -53.5q49 -7 74.5 -49.5t25.5 -119.5q0 -95 -60 -144.5t-176 -49.5t-176 49.5zM407.5 86
q44.5 34 44.5 100t-44.5 100t-131.5 34t-131.5 -34t-44.5 -100t44.5 -100t131.5 -34t131.5 34zM388.5 414q38.5 34 38.5 100t-38.5 100t-112.5 34t-112.5 -34t-38.5 -100t38.5 -100t112.5 -34t112.5 34z" />
    <glyph glyph-name="nine" unicode="9" horiz-adv-x="566" 
d="M496 126l-105 -126h-241l-89 106l40 46l77 -92h184l74 88v362h60v-384zM439.5 658.5q56.5 -50.5 56.5 -148.5q0 -57 -28 -100.5t-78.5 -67t-116.5 -23.5q-110 0 -166.5 48.5t-56.5 142.5q0 98 56.5 148.5t166.5 50.5t166.5 -50.5zM151.5 613.5q-41.5 -35.5 -41.5 -103.5
q0 -64 41.5 -97.5t121.5 -33.5t121.5 33.5t41.5 97.5q0 68 -41.5 103.5t-121.5 35.5t-121.5 -35.5z" />
    <glyph glyph-name="colon" unicode=":" horiz-adv-x="223" 
d="M75 421q-15 15 -15 35q0 22 15 37t36 15t36.5 -15.5t15.5 -36.5q0 -20 -16 -35t-36 -15q-21 0 -36 15zM75 7q-15 15 -15 35q0 22 15 37t36 15t36.5 -15.5t15.5 -36.5q0 -20 -16 -35t-36 -15q-21 0 -36 15z" />
    <glyph glyph-name="semicolon" unicode=";" horiz-adv-x="223" 
d="M40 -36l45 54v77h60v-99l-66 -79zM75 418q-15 15 -15 35q0 22 15 37t36 15t36.5 -15.5t15.5 -36.5q0 -20 -16 -35t-36 -15q-21 0 -36 15z" />
    <glyph glyph-name="less" unicode="&#x3c;" 
d="M389 117l-121 147v20l121 145l-39 46l-139 -166v-70l139 -168z" />
    <glyph glyph-name="equal" unicode="=" 
d="M70 379h460v-60h-460v60zM70 259h460v-60h-460v60z" />
    <glyph glyph-name="greater" unicode="&#x3e;" 
d="M211 117l121 147v20l-121 145l39 46l139 -166v-70l-139 -168z" />
    <glyph glyph-name="question" unicode="?" horiz-adv-x="450" 
d="M187 416h106l67 80v65l-66 79h-148l-77 -92l-39 46l89 106h203l98 -117v-109l-99 -118h-74v-156h-60v216zM185 14q-14 14 -14 33t14 32.5t33 13.5t33 -13.5t14 -32.5t-14 -33t-33 -14t-33 14z" />
    <glyph glyph-name="at" unicode="@" horiz-adv-x="836" 
d="M60 63v371l173 206h370l173 -206v-347l-72 -87h-77l-74 88v261l-77 92h-134l-75 -90l-39 48l85 101h192l108 -129v-261l42 -50h20l41 49v302l-144 170h-308l-144 -170v-321l144 -170h363v-60h-394zM255 29.5q-52 38.5 -52 114.5q0 71 52 108t153 37q96 0 145.5 -37
t49.5 -108q0 -76 -49.5 -114.5t-145.5 -38.5q-101 0 -153 38.5zM516 74.5q37 23.5 37 69.5t-37 69.5t-108 23.5t-108 -23.5t-37 -69.5t37 -69.5t108 -23.5t108 23.5z" />
    <glyph glyph-name="A" unicode="A" horiz-adv-x="616" 
d="M70 500q0 103 60.5 155.5t177.5 52.5t177.5 -52.5t60.5 -155.5v-500h-60v300h-356v-300h-60v500zM486 360v136q0 75 -45 113.5t-133 38.5t-133 -38.5t-45 -113.5v-136h356z" />
    <glyph glyph-name="B" unicode="B" horiz-adv-x="590" 
d="M80 700h225q109 0 164.5 -48t55.5 -142q0 -61 -23.5 -100t-69.5 -55q58 -8 88 -50t30 -115q0 -94 -55.5 -142t-164.5 -48h-250v700zM330 60q79 0 119.5 34t40.5 100q0 62 -40.5 94t-119.5 32h-190v-260h190zM305 380q79 0 119.5 33t40.5 97t-40.5 97t-119.5 33h-165v-260
h165z" />
    <glyph glyph-name="C" unicode="C" horiz-adv-x="632" 
d="M60 160v379l135 161h270l117 -140l-39 -47l-107 127h-212l-104 -123v-335l104 -122h222l107 128l39 -48l-117 -140h-280z" />
    <glyph glyph-name="D" unicode="D" horiz-adv-x="629" 
d="M80 700h222q142 0 214.5 -88.5t72.5 -261.5t-72.5 -261.5t-214.5 -88.5h-222v700zM302 60q112 0 169.5 73.5t57.5 216.5t-57.5 216.5t-169.5 73.5h-162v-580h162z" />
    <glyph glyph-name="E" unicode="E" horiz-adv-x="550" 
d="M80 700h420v-60h-360v-240h310v-60h-310v-280h360v-60h-420v700z" />
    <glyph glyph-name="F" unicode="F" horiz-adv-x="480" 
d="M80 700h390v-60h-330v-260h280v-60h-280v-320h-60v700z" />
    <glyph glyph-name="G" unicode="G" horiz-adv-x="662" 
d="M60 160v379l135 161h280l117 -140l-39 -47l-107 127h-222l-104 -123v-335l104 -122h232l86 103v131h-180v60h240v-214l-117 -140h-290z" />
    <glyph glyph-name="H" unicode="H" horiz-adv-x="655" 
d="M80 700h60v-320h375v320h60v-700h-60v320h-375v-320h-60v700z" />
    <glyph glyph-name="I" unicode="I" horiz-adv-x="360" 
d="M50 60h100v580h-100v60h260v-60h-100v-580h100v-60h-260v60z" />
    <glyph glyph-name="J" unicode="J" horiz-adv-x="461" 
d="M40 103l39 47l76 -91h100l76 91v550h60v-572l-107 -128h-158z" />
    <glyph glyph-name="K" unicode="K" horiz-adv-x="562" 
d="M452 170l-126 150h-222v60h222l96 113v207h60v-229l-99 -117v-8l129 -154v-192h-60v170zM80 700h60v-700h-60v700z" />
    <glyph glyph-name="L" unicode="L" horiz-adv-x="470" 
d="M80 700h60v-640h320v-60h-380v700z" />
    <glyph glyph-name="M" unicode="M" horiz-adv-x="749" 
d="M609 640h-20l-180 -213h-70l-179 213h-20v-639h-60v699h108l180 -214h12l181 214h108v-701h-60v641z" />
    <glyph glyph-name="N" unicode="N" horiz-adv-x="674" 
d="M306 147v384l-91 109h-75v-639h-60v699h163l125 -147v-385l91 -108h75v639h60v-699h-163z" />
    <glyph glyph-name="O" unicode="O" horiz-adv-x="656" 
d="M113.5 83q-73.5 91 -73.5 267t73.5 267t214.5 91q143 0 215.5 -90.5t72.5 -267.5t-72.5 -267.5t-215.5 -90.5q-141 0 -214.5 91zM499 127.5q57 75.5 57 222.5q0 148 -57 223t-171 75q-111 0 -169.5 -75.5t-58.5 -222.5t58.5 -222.5t169.5 -75.5q114 0 171 75.5z" />
    <glyph glyph-name="P" unicode="P" horiz-adv-x="540" 
d="M80 700h225q106 0 160.5 -51t54.5 -149t-54.5 -149t-160.5 -51h-165v-300h-60v700zM305 360q76 0 115.5 35.5t39.5 104.5t-39.5 104.5t-115.5 35.5h-165v-280h165z" />
    <glyph glyph-name="Q" unicode="Q" horiz-adv-x="656" 
d="M399 32v143h61v-123l69 -81l-39 -47zM113.5 83q-73.5 91 -73.5 267t73.5 267t214.5 91q143 0 215.5 -90.5t72.5 -267.5t-72.5 -267.5t-215.5 -90.5q-141 0 -214.5 91zM499 127.5q57 75.5 57 222.5q0 148 -57 223t-171 75q-111 0 -169.5 -75.5t-58.5 -222.5t58.5 -222.5
t169.5 -75.5q114 0 171 75.5z" />
    <glyph glyph-name="R" unicode="R" horiz-adv-x="570" 
d="M80 700h225q106 0 160.5 -51t54.5 -149t-54.5 -149t-160.5 -51h-165v-300h-60v700zM450 130l-159 190l75 5l144 -172v-153h-60v130zM305 360q76 0 115.5 35.5t39.5 104.5t-39.5 104.5t-115.5 35.5h-165v-280h165z" />
    <glyph glyph-name="S" unicode="S" horiz-adv-x="605" 
d="M50 106l40 46l77 -92h254l74 88v104l-57 68h-289l-89 106v148l105 126h271l89 -106l-40 -46l-77 92h-214l-74 -88v-104l57 -68h289l89 -106v-148l-105 -126h-311z" />
    <glyph glyph-name="T" unicode="T" horiz-adv-x="490" 
d="M215 640h-215v60h490v-60h-215v-640h-60v640z" />
    <glyph glyph-name="U" unicode="U" horiz-adv-x="635" 
d="M70 153v547h60v-525l98 -116h179l98 116v525h60v-547l-129 -153h-237z" />
    <glyph glyph-name="V" unicode="V" horiz-adv-x="574" 
d="M50 244v456h60v-435l172 -205h10l172 205v435h60v-456l-204 -244h-66z" />
    <glyph glyph-name="W" unicode="W" horiz-adv-x="850" 
d="M70 152v548h60v-526l98 -114h70l97 114v486h60v-486l97 -113h70l98 113v526h60v-548l-130 -152h-126l-97 115h-4l-98 -115h-125z" />
    <glyph glyph-name="X" unicode="X" horiz-adv-x="574" 
d="M60 148l165 197v10l-165 197v148h60v-127l162 -193h10l162 193v127h60v-148l-165 -197v-10l165 -197v-148h-60v127l-162 191h-10l-162 -191v-127h-60v148z" />
    <glyph glyph-name="Y" unicode="Y" horiz-adv-x="528" 
d="M234 265l-214 255v180h60v-158l180 -215h8l180 215v158h60v-180l-214 -255v-265h-60v265z" />
    <glyph glyph-name="Z" unicode="Z" horiz-adv-x="582" 
d="M50 216l141 164h154l107 124v136h-382v60h442v-216l-141 -164h-154l-107 -124v-136h422v-60h-482v216z" />
    <glyph glyph-name="bracketleft" unicode="[" horiz-adv-x="310" 
d="M80 700h190v-60h-130v-730h130v-60h-190v850z" />
    <glyph glyph-name="backslash" unicode="\" horiz-adv-x="625" 
d="M58 700h-78l588 -700h77z" />
    <glyph glyph-name="bracketright" unicode="]" horiz-adv-x="310" 
d="M230 700h-190v-60h130v-730h-130v-60h190v850z" />
    <glyph glyph-name="underscore" unicode="_" horiz-adv-x="620" 
d="M60 60h500v-60h-500v60z" />
    <glyph glyph-name="grave" unicode="`" 
d="M228 679l-45 54l39 47l66 -79v-99h-60v77z" />
    <glyph glyph-name="a" unicode="a" horiz-adv-x="500" 
d="M380 359l-67 82h-144l-75 -90l-39 48l85 101h202l98 -119v-381h-60v359zM82 29.5q-52 38.5 -52 114.5q0 71 52 108t153 37q96 0 145.5 -37t49.5 -108q0 -76 -49.5 -114.5t-145.5 -38.5q-101 0 -153 38.5zM343 74.5q37 23.5 37 69.5t-37 69.5t-108 23.5t-108 -23.5
t-37 -69.5t37 -69.5t108 -23.5t108 23.5z" />
    <glyph glyph-name="b" unicode="b" horiz-adv-x="556" 
d="M135.5 57.5q-55.5 65.5 -55.5 192.5t55.5 192.5t162.5 65.5q113 0 170.5 -65.5t57.5 -192.5t-57.5 -192.5t-170.5 -65.5q-107 0 -162.5 65.5zM70 700h60v-700h-60v700zM423.5 102.5q42.5 50.5 42.5 147.5t-42.5 147.5t-125.5 50.5t-125.5 -50.5t-42.5 -147.5t42.5 -147.5
t125.5 -50.5t125.5 50.5z" />
    <glyph glyph-name="c" unicode="c" horiz-adv-x="493" 
d="M50 128v244l108 128h218l77 -92l-39 -47l-66 79h-162l-76 -91v-199l75 -90h172l66 79l40 -47l-77 -92h-228z" />
    <glyph glyph-name="d" unicode="d" horiz-adv-x="556" 
d="M420.5 57.5q55.5 65.5 55.5 192.5t-55.5 192.5t-162.5 65.5q-113 0 -170.5 -65.5t-57.5 -192.5t57.5 -192.5t170.5 -65.5q107 0 162.5 65.5zM486 700h-60v-700h60v700zM132.5 102.5q-42.5 50.5 -42.5 147.5t42.5 147.5t125.5 50.5t125.5 -50.5t42.5 -147.5t-42.5 -147.5
t-125.5 -50.5t-125.5 50.5z" />
    <glyph glyph-name="e" unicode="e" horiz-adv-x="498" 
d="M40 128v126q0 125 54 189.5t160 64.5t160 -60t54 -176v-43h-368v-79l76 -90h154l74 89l39 -46l-86 -103h-209zM408 289q0 78 -39 118.5t-115 40.5t-115 -40.5t-39 -118.5h308z" />
    <glyph glyph-name="f" unicode="f" horiz-adv-x="385" 
d="M130 440h-100v60h100v88l94 112h115l86 -103l-39 -47l-76 90h-58l-62 -73v-67h149v-60h-149v-440h-60v440z" />
    <glyph glyph-name="g" unicode="g" horiz-adv-x="556" 
d="M67 -78l39 47l91 -109h164l65 78v562h60v-584l-98 -116h-218zM87.5 57.5q-57.5 65.5 -57.5 192.5t57.5 192.5t170.5 65.5q107 0 162.5 -65.5t55.5 -192.5t-55.5 -192.5t-162.5 -65.5q-113 0 -170.5 65.5zM383.5 102.5q42.5 50.5 42.5 147.5t-42.5 147.5t-125.5 50.5
t-125.5 -50.5t-42.5 -147.5t42.5 -147.5t125.5 -50.5t125.5 50.5z" />
    <glyph glyph-name="h" unicode="h" horiz-adv-x="527" 
d="M70 700h60v-266l47 66h183l107 -128v-372h-60v350l-76 91h-125l-76 -90v-351h-60v700z" />
    <glyph glyph-name="i" unicode="i" horiz-adv-x="280" 
d="M30 60h80v440h60v-440h80v-60h-220v60zM107 620.5q-14 13.5 -14 32.5t14 33t33 14t33 -14t14 -33t-14 -32.5t-33 -13.5t-33 13.5z" />
    <glyph glyph-name="j" unicode="j" horiz-adv-x="267" 
d="M-60 -118l39 45l57 -67h40l46 54v586h60v-607l-78 -93h-96zM117 619.5q-14 13.5 -14 32.5t14 33t33 14t33 -14t14 -33t-14 -32.5t-33 -13.5t-33 13.5z" />
    <glyph glyph-name="k" unicode="k" horiz-adv-x="469" 
d="M70 700h60v-401h106l100 119v82h60v-104l-103 -123v-8l136 -161v-104h-60v82l-133 157h-106v-239h-60v700z" />
    <glyph glyph-name="l" unicode="l" horiz-adv-x="220" 
d="M90 640h-80v60h140v-700h-60v640z" />
    <glyph glyph-name="m" unicode="m" horiz-adv-x="810" 
d="M70 500h60v-66l47 66h156l77 -93l78 93h155l107 -128v-372h-60v350l-76 91h-97l-77 -91v-350h-60v350l-76 91h-98l-76 -90v-351h-60v500z" />
    <glyph glyph-name="n" unicode="n" horiz-adv-x="522" 
d="M70 500h60v-66l47 66h178l107 -128v-372h-60v350l-76 91h-120l-76 -90v-351h-60v500z" />
    <glyph glyph-name="o" unicode="o" horiz-adv-x="516" 
d="M87.5 57.5q-57.5 65.5 -57.5 192.5t57.5 192.5t170.5 65.5t170.5 -65.5t57.5 -192.5t-57.5 -192.5t-170.5 -65.5t-170.5 65.5zM383.5 102.5q42.5 50.5 42.5 147.5t-42.5 147.5t-125.5 50.5t-125.5 -50.5t-42.5 -147.5t42.5 -147.5t125.5 -50.5t125.5 50.5z" />
    <glyph glyph-name="p" unicode="p" horiz-adv-x="556" 
d="M135.5 442.5q-55.5 -65.5 -55.5 -192.5t55.5 -192.5t162.5 -65.5q113 0 170.5 65.5t57.5 192.5t-57.5 192.5t-170.5 65.5q-107 0 -162.5 -65.5zM70 -200h60v700h-60v-700zM423.5 397.5q42.5 -50.5 42.5 -147.5t-42.5 -147.5t-125.5 -50.5t-125.5 50.5t-42.5 147.5
t42.5 147.5t125.5 50.5t125.5 -50.5z" />
    <glyph glyph-name="q" unicode="q" horiz-adv-x="556" 
d="M420.5 442.5q55.5 -65.5 55.5 -192.5t-55.5 -192.5t-162.5 -65.5q-113 0 -170.5 65.5t-57.5 192.5t57.5 192.5t170.5 65.5q107 0 162.5 -65.5zM486 -200h-60v700h60v-700zM132.5 397.5q-42.5 -50.5 -42.5 -147.5t42.5 -147.5t125.5 -50.5t125.5 50.5t42.5 147.5
t-42.5 147.5t-125.5 50.5t-125.5 -50.5z" />
    <glyph glyph-name="r" unicode="r" horiz-adv-x="389" 
d="M70 500h60v-66l47 66h116l86 -103l-39 -46l-75 89h-60l-75 -90v-350h-60v500z" />
    <glyph glyph-name="s" unicode="s" horiz-adv-x="475" 
d="M40 106l39 46l77 -92h179l40 48v55l-48 57h-197l-70 84v111l73 85h203l89 -106l-39 -46l-77 92h-148l-41 -49v-66l38 -45h198l79 -94v-101l-73 -85h-233z" />
    <glyph glyph-name="t" unicode="t" horiz-adv-x="320" 
d="M110 93v347h-90v60h90v130h60v-130h110v-60h-110v-325l46 -55h64v-60h-92z" />
    <glyph glyph-name="u" unicode="u" horiz-adv-x="522" 
d="M452 0h-60v66l-47 -66h-178l-107 128v372h60v-350l76 -91h120l76 90v351h60v-500z" />
    <glyph glyph-name="v" unicode="v" horiz-adv-x="490" 
d="M50 194v306h60v-285l125 -155h20l125 155v285h60v-306l-157 -194h-76z" />
    <glyph glyph-name="w" unicode="w" horiz-adv-x="712" 
d="M60 132v368h60v-346l78 -94h50l78 94v306h60v-306l78 -93h50l78 93v346h60v-368l-110 -132h-107l-77 94h-4l-78 -94h-106z" />
    <glyph glyph-name="x" unicode="x" horiz-adv-x="474" 
d="M50 95l125 150v10l-125 150v95h60v-74l122 -146h10l122 146v74h60v-95l-125 -150v-10l125 -150v-95h-60v73l-122 145h-10l-122 -145v-73h-60v95z" />
    <glyph glyph-name="y" unicode="y" horiz-adv-x="492" 
d="M180 -117l39 44l56 -67h40l47 54v86h-80l-242 295v205h60v-187l215 -255h47v442h60v-608l-80 -92h-96z" />
    <glyph glyph-name="z" unicode="z" horiz-adv-x="482" 
d="M50 156l104 124h128l70 84v76h-282v60h342v-156l-104 -124h-128l-70 -84v-76h322v-60h-382v156z" />
    <glyph glyph-name="braceleft" unicode="{" horiz-adv-x="307" 
d="M94 -32v156l-84 99v60l84 101v186l114 136l39 -46l-93 -112v-187l-87 -103v-10l87 -104v-154l93 -112l-39 -46z" />
    <glyph glyph-name="bar" unicode="|" horiz-adv-x="220" 
d="M80 740h60v-850h-60v850z" />
    <glyph glyph-name="braceright" unicode="}" horiz-adv-x="307" 
d="M213 -32v156l84 99v60l-84 101v186l-114 136l-39 -46l93 -112v-187l87 -103v-10l-87 -104v-154l-93 -112l39 -46z" />
    <glyph glyph-name="uni00A0" unicode="&#xa0;" horiz-adv-x="280" 
 />
    <glyph glyph-name="exclamdown" unicode="&#xa1;" horiz-adv-x="254" 
d="M97 -184h60v500h-60v-500zM94 502q-14 -14 -14 -33t14 -32.5t33 -13.5t33 13.5t14 32.5t-14 33t-33 14t-33 -14z" />
    <glyph glyph-name="currency" unicode="&#xa4;" 
d="M86 145l44 53q-28 48 -28 120t28 120l-44 53l39 46l46 -55q51 34 129 34t129 -34l46 55l39 -46l-44 -53q28 -48 28 -120t-28 -120l44 -53l-39 -46l-46 55q-51 -34 -129 -34t-129 34l-46 -55zM403 212q35 36 35 106q0 68 -35 103t-103 35t-103 -35t-35 -103q0 -70 35 -106
t103 -36t103 36z" />
    <glyph glyph-name="section" unicode="&#xa7;" 
d="M113 453v122l73 85h224l89 -106l-39 -46l-77 92h-169l-41 -49v-77l67 -73l-28 -60zM101 6l39 46l77 -92h170l40 48v80l-63 71l30 60l93 -108v-126l-73 -85h-224zM179 182.5q-41 33.5 -41 97.5t41 97.5t121 33.5t121 -33.5t41 -97.5t-41 -97.5t-121 -33.5t-121 33.5z
M376 227.5q26 18.5 26 53.5q0 34 -26 52t-76 18t-76 -18t-26 -52q0 -35 26 -53.5t76 -18.5t76 18.5z" />
    <glyph glyph-name="dieresis" unicode="&#xa8;" horiz-adv-x="348" 
d="M228 610.5q-14 13.5 -14 32.5t14 33t33 14t33 -14t14 -33t-14 -32.5t-33 -13.5t-33 13.5zM54 610.5q-14 13.5 -14 32.5t14 33t33 14t33 -14t14 -33t-14 -32.5t-33 -13.5t-33 13.5z" />
    <glyph glyph-name="copyright" unicode="&#xa9;" horiz-adv-x="656" 
d="M113 65.5q-73 81.5 -73 238.5q0 158 73 239t215 81t215 -81.5t73 -238.5t-73 -238.5t-215 -81.5t-215 81.5zM157 210v184l88 108h178l67 -82l-49 -37l-46 59h-122l-56 -71v-139l55 -70h132l46 59l40 -47l-57 -72h-188zM498 110q58 66 58 194t-58 194t-170 66t-170 -66
t-58 -194t58 -194t170 -66t170 66z" />
    <glyph glyph-name="guillemotleft" unicode="&#xab;" horiz-adv-x="408" 
d="M200 239v70l139 166l39 -46l-121 -145v-20l121 -147l-39 -46zM50 239v70l139 166l39 -46l-121 -145v-20l121 -147l-39 -46z" />
    <glyph glyph-name="macron" unicode="&#xaf;" horiz-adv-x="360" 
d="M40 700h280v-60h-280v60z" />
    <glyph glyph-name="degree" unicode="&#xb0;" horiz-adv-x="304" 
d="M97 509.5q-26 15.5 -41.5 41t-15.5 54.5q0 30 15.5 55.5t41 40.5t55.5 15q29 0 55 -15t41.5 -40.5t15.5 -55.5q0 -28 -16 -54t-42 -41.5t-54 -15.5q-29 0 -55 15.5zM188 569.5q16 15.5 16 35.5q0 21 -15.5 36t-36.5 15t-36.5 -15t-15.5 -36q0 -20 15.5 -35.5t36.5 -15.5
q20 0 36 15.5z" />
    <glyph glyph-name="acute" unicode="&#xb4;" 
d="M211 621l45 54v77h60v-99l-66 -79z" />
    <glyph glyph-name="paragraph" unicode="&#xb6;" horiz-adv-x="528" 
d="M256 308h-1q-106 0 -160.5 51t-54.5 149t54.5 149t160.5 51h61v-758h-60v358zM388 708h60v-758h-60v758z" />
    <glyph glyph-name="periodcentered" unicode="&#xb7;" horiz-adv-x="223" 
d="M75 224q-15 15 -15 35q0 22 15 37t36 15t36.5 -15.5t15.5 -36.5q0 -20 -16 -35t-36 -15q-21 0 -36 15z" />
    <glyph glyph-name="cedilla" unicode="&#xb8;" horiz-adv-x="233" 
d="M90 -157h59l31 37v10h-87v110h60v-50h90v-90l-66 -77h-87v60z" />
    <glyph glyph-name="guillemotright" unicode="&#xbb;" horiz-adv-x="408" 
d="M180 117l121 147v20l-121 145l39 46l139 -166v-70l-139 -168zM30 117l121 147v20l-121 145l39 46l139 -166v-70l-139 -168z" />
    <glyph glyph-name="questiondown" unicode="&#xbf;" horiz-adv-x="450" 
d="M263 100h-106l-67 -80v-65l66 -79h148l77 92l39 -46l-89 -106h-203l-98 117v109l99 118h74v156h60v-216zM265 502q14 -14 14 -33t-14 -32.5t-33 -13.5t-33 13.5t-14 32.5t14 33t33 14t33 -14z" />
    <glyph glyph-name="Agrave" unicode="&#xc0;" horiz-adv-x="616" 
d="M70 500q0 103 60.5 155.5t177.5 52.5t177.5 -52.5t60.5 -155.5v-500h-60v300h-356v-300h-60v500zM486 360v136q0 75 -45 113.5t-133 38.5t-133 -38.5t-45 -113.5v-136h356zM300 869l-45 54l39 47l66 -79v-99h-60v77z" />
    <glyph glyph-name="Aacute" unicode="&#xc1;" horiz-adv-x="616" 
d="M70 500q0 103 60.5 155.5t177.5 52.5t177.5 -52.5t60.5 -155.5v-500h-60v300h-356v-300h-60v500zM486 360v136q0 75 -45 113.5t-133 38.5t-133 -38.5t-45 -113.5v-136h356zM255 841l45 54v77h60v-99l-66 -79z" />
    <glyph glyph-name="Acircumflex" unicode="&#xc2;" horiz-adv-x="616" 
d="M70 500q0 103 60.5 155.5t177.5 52.5t177.5 -52.5t60.5 -155.5v-500h-60v300h-356v-300h-60v500zM486 360v136q0 75 -45 113.5t-133 38.5t-133 -38.5t-45 -113.5v-136h356zM197 805l77 92h70l75 -90l-42 -36l-58 69h-20l-62 -69z" />
    <glyph glyph-name="Atilde" unicode="&#xc3;" horiz-adv-x="616" 
d="M70 500q0 103 60.5 155.5t177.5 52.5t177.5 -52.5t60.5 -155.5v-500h-60v300h-356v-300h-60v500zM486 360v136q0 75 -45 113.5t-133 38.5t-133 -38.5t-45 -113.5v-136h356zM153 852l68 82h76l50 -60h20l57 67l39 -45l-68 -82h-76l-50 60h-20l-57 -67z" />
    <glyph glyph-name="Adieresis" unicode="&#xc4;" horiz-adv-x="616" 
d="M70 500q0 103 60.5 155.5t177.5 52.5t177.5 -52.5t60.5 -155.5v-500h-60v300h-356v-300h-60v500zM486 360v136q0 75 -45 113.5t-133 38.5t-133 -38.5t-45 -113.5v-136h356zM395 776.5q-14 13.5 -14 32.5t14 33t33 14t33 -14t14 -33t-14 -32.5t-33 -13.5t-33 13.5z
M155 776.5q-14 13.5 -14 32.5t14 33t33 14t33 -14t14 -33t-14 -32.5t-33 -13.5t-33 13.5z" />
    <glyph glyph-name="Aring" unicode="&#xc5;" horiz-adv-x="616" 
d="M70 500q0 103 60.5 155.5t177.5 52.5t177.5 -52.5t60.5 -155.5v-500h-60v300h-356v-300h-60v500zM486 360v136q0 75 -45 113.5t-133 38.5t-133 -38.5t-45 -113.5v-136h356zM253 792.5q-26 15.5 -41.5 41t-15.5 54.5q0 30 15.5 55.5t41 40.5t55.5 15q29 0 55 -15
t41.5 -40.5t15.5 -55.5q0 -28 -16 -54t-42 -41.5t-54 -15.5q-29 0 -55 15.5zM344 852.5q16 15.5 16 35.5q0 21 -15.5 36t-36.5 15t-36.5 -15t-15.5 -36q0 -20 15.5 -35.5t36.5 -15.5q20 0 36 15.5z" />
    <glyph glyph-name="AE" unicode="&#xc6;" horiz-adv-x="856" 
d="M70 500q0 98 60.5 149t177.5 51h168v-700h-60v300h-286v-300h-60v500zM416 360v280h-108q-88 0 -133 -36.5t-45 -107.5v-136h286zM416 700h390v-60h-330v-280h280v-60h-280v-240h330v-60h-390v700z" />
    <glyph glyph-name="Ccedilla" unicode="&#xc7;" horiz-adv-x="632" 
d="M60 160v379l135 161h270l117 -140l-39 -47l-107 127h-212l-104 -123v-335l104 -122h222l107 128l39 -48l-117 -140h-280zM289 -157h59l31 37v10h-87v110h60v-50h90v-90l-66 -77h-87v60z" />
    <glyph glyph-name="Egrave" unicode="&#xc8;" horiz-adv-x="550" 
d="M80 700h420v-60h-360v-240h310v-60h-310v-280h360v-60h-420v700zM267 869l-45 54l39 47l66 -79v-99h-60v77z" />
    <glyph glyph-name="Eacute" unicode="&#xc9;" horiz-adv-x="550" 
d="M80 700h420v-60h-360v-240h310v-60h-310v-280h360v-60h-420v700zM222 841l45 54v77h60v-99l-66 -79z" />
    <glyph glyph-name="Ecircumflex" unicode="&#xca;" horiz-adv-x="550" 
d="M80 700h420v-60h-360v-240h310v-60h-310v-280h360v-60h-420v700zM164 805l77 92h70l75 -90l-42 -36l-58 69h-20l-62 -69z" />
    <glyph glyph-name="Edieresis" unicode="&#xcb;" horiz-adv-x="550" 
d="M80 700h420v-60h-360v-240h310v-60h-310v-280h360v-60h-420v700zM362 776.5q-14 13.5 -14 32.5t14 33t33 14t33 -14t14 -33t-14 -32.5t-33 -13.5t-33 13.5zM122 776.5q-14 13.5 -14 32.5t14 33t33 14t33 -14t14 -33t-14 -32.5t-33 -13.5t-33 13.5z" />
    <glyph glyph-name="Igrave" unicode="&#xcc;" horiz-adv-x="360" 
d="M50 60h100v580h-100v60h260v-60h-100v-580h100v-60h-260v60zM172 869l-45 54l39 47l66 -79v-99h-60v77z" />
    <glyph glyph-name="Iacute" unicode="&#xcd;" horiz-adv-x="360" 
d="M50 60h100v580h-100v60h260v-60h-100v-580h100v-60h-260v60zM127 841l45 54v77h60v-99l-66 -79z" />
    <glyph glyph-name="Icircumflex" unicode="&#xce;" horiz-adv-x="360" 
d="M50 60h100v580h-100v60h260v-60h-100v-580h100v-60h-260v60zM63 805l77 92h70l75 -90l-42 -36l-58 69h-20l-62 -69z" />
    <glyph glyph-name="Idieresis" unicode="&#xcf;" horiz-adv-x="376" 
d="M244 806.5q-14 13.5 -14 32.5t14 33t33 14t33 -14t14 -33t-14 -32.5t-33 -13.5t-33 13.5zM64 806.5q-14 13.5 -14 32.5t14 33t33 14t33 -14t14 -33t-14 -32.5t-33 -13.5t-33 13.5zM66 60h100v580h-100v60h260v-60h-100v-580h100v-60h-260v60z" />
    <glyph glyph-name="Eth" unicode="&#xd0;" horiz-adv-x="687" 
d="M50 360h326v-60h-326v60zM138 700h222q142 0 214.5 -88.5t72.5 -261.5t-72.5 -261.5t-214.5 -88.5h-222v700zM360 60q112 0 169.5 73.5t57.5 216.5t-57.5 216.5t-169.5 73.5h-162v-580h162z" />
    <glyph glyph-name="Ntilde" unicode="&#xd1;" horiz-adv-x="674" 
d="M306 147v384l-91 109h-75v-639h-60v699h163l125 -147v-385l91 -108h75v639h60v-699h-163zM182 852l68 82h76l50 -60h20l57 67l39 -45l-68 -82h-76l-50 60h-20l-57 -67z" />
    <glyph glyph-name="Ograve" unicode="&#xd2;" horiz-adv-x="656" 
d="M113.5 83q-73.5 91 -73.5 267t73.5 267t214.5 91q143 0 215.5 -90.5t72.5 -267.5t-72.5 -267.5t-215.5 -90.5q-141 0 -214.5 91zM499 127.5q57 75.5 57 222.5q0 148 -57 223t-171 75q-111 0 -169.5 -75.5t-58.5 -222.5t58.5 -222.5t169.5 -75.5q114 0 171 75.5zM320 869
l-45 54l39 47l66 -79v-99h-60v77z" />
    <glyph glyph-name="Oacute" unicode="&#xd3;" horiz-adv-x="656" 
d="M113.5 83q-73.5 91 -73.5 267t73.5 267t214.5 91q143 0 215.5 -90.5t72.5 -267.5t-72.5 -267.5t-215.5 -90.5q-141 0 -214.5 91zM499 127.5q57 75.5 57 222.5q0 148 -57 223t-171 75q-111 0 -169.5 -75.5t-58.5 -222.5t58.5 -222.5t169.5 -75.5q114 0 171 75.5zM275 841
l45 54v77h60v-99l-66 -79z" />
    <glyph glyph-name="Ocircumflex" unicode="&#xd4;" horiz-adv-x="656" 
d="M113.5 83q-73.5 91 -73.5 267t73.5 267t214.5 91q143 0 215.5 -90.5t72.5 -267.5t-72.5 -267.5t-215.5 -90.5q-141 0 -214.5 91zM499 127.5q57 75.5 57 222.5q0 148 -57 223t-171 75q-111 0 -169.5 -75.5t-58.5 -222.5t58.5 -222.5t169.5 -75.5q114 0 171 75.5zM217 805
l77 92h70l75 -90l-42 -36l-58 69h-20l-62 -69z" />
    <glyph glyph-name="Otilde" unicode="&#xd5;" horiz-adv-x="656" 
d="M113.5 83q-73.5 91 -73.5 267t73.5 267t214.5 91q143 0 215.5 -90.5t72.5 -267.5t-72.5 -267.5t-215.5 -90.5q-141 0 -214.5 91zM499 127.5q57 75.5 57 222.5q0 148 -57 223t-171 75q-111 0 -169.5 -75.5t-58.5 -222.5t58.5 -222.5t169.5 -75.5q114 0 171 75.5zM173 852
l68 82h76l50 -60h20l57 67l39 -45l-68 -82h-76l-50 60h-20l-57 -67z" />
    <glyph glyph-name="Odieresis" unicode="&#xd6;" horiz-adv-x="656" 
d="M113.5 83q-73.5 91 -73.5 267t73.5 267t214.5 91q143 0 215.5 -90.5t72.5 -267.5t-72.5 -267.5t-215.5 -90.5q-141 0 -214.5 91zM499 127.5q57 75.5 57 222.5q0 148 -57 223t-171 75q-111 0 -169.5 -75.5t-58.5 -222.5t58.5 -222.5t169.5 -75.5q114 0 171 75.5z
M415 776.5q-14 13.5 -14 32.5t14 33t33 14t33 -14t14 -33t-14 -32.5t-33 -13.5t-33 13.5zM175 776.5q-14 13.5 -14 32.5t14 33t33 14t33 -14t14 -33t-14 -32.5t-33 -13.5t-33 13.5z" />
    <glyph glyph-name="multiply" unicode="&#xd7;" 
d="M237 245v10l-179 216h78l158 -191h10l158 191h80l-181 -216v-10l179 -216h-78l-158 189h-10l-157 -189h-79z" />
    <glyph glyph-name="Oslash" unicode="&#xd8;" horiz-adv-x="735" 
d="M622 700h78l-588 -700h-77zM155.5 83q-73.5 91 -73.5 267t73.5 267t214.5 91q143 0 215.5 -90.5t72.5 -267.5t-72.5 -267.5t-215.5 -90.5q-141 0 -214.5 91zM541 127.5q57 75.5 57 222.5q0 148 -57 223t-171 75q-111 0 -169.5 -75.5t-58.5 -222.5t58.5 -222.5
t169.5 -75.5q114 0 171 75.5z" />
    <glyph glyph-name="Ugrave" unicode="&#xd9;" horiz-adv-x="635" 
d="M70 153v547h60v-525l98 -116h179l98 116v525h60v-547l-129 -153h-237zM310 869l-45 54l39 47l66 -79v-99h-60v77z" />
    <glyph glyph-name="Uacute" unicode="&#xda;" horiz-adv-x="635" 
d="M70 153v547h60v-525l98 -116h179l98 116v525h60v-547l-129 -153h-237zM265 841l45 54v77h60v-99l-66 -79z" />
    <glyph glyph-name="Ucircumflex" unicode="&#xdb;" horiz-adv-x="635" 
d="M70 153v547h60v-525l98 -116h179l98 116v525h60v-547l-129 -153h-237zM207 805l77 92h70l75 -90l-42 -36l-58 69h-20l-62 -69z" />
    <glyph glyph-name="Udieresis" unicode="&#xdc;" horiz-adv-x="635" 
d="M70 153v547h60v-525l98 -116h179l98 116v525h60v-547l-129 -153h-237zM405 776.5q-14 13.5 -14 32.5t14 33t33 14t33 -14t14 -33t-14 -32.5t-33 -13.5t-33 13.5zM165 776.5q-14 13.5 -14 32.5t14 33t33 14t33 -14t14 -33t-14 -32.5t-33 -13.5t-33 13.5z" />
    <glyph glyph-name="Yacute" unicode="&#xdd;" horiz-adv-x="528" 
d="M234 265l-214 255v180h60v-158l180 -215h8l180 215v158h60v-180l-214 -255v-265h-60v265zM211 841l45 54v77h60v-99l-66 -79z" />
    <glyph glyph-name="Thorn" unicode="&#xde;" horiz-adv-x="540" 
d="M80 241h225q76 0 115.5 35.5t39.5 104.5t-39.5 104.5t-115.5 35.5h-225v60h225q106 0 160.5 -51t54.5 -149t-54.5 -149t-160.5 -51h-225v60zM80 700h60v-700h-60v700z" />
    <glyph glyph-name="germandbls" unicode="&#xdf;" horiz-adv-x="512" 
d="M70 575l108 125h186l103 -121v-138l-74 -87v-8l79 -94v-126l-106 -126h-176v60h146l76 89v82l-76 89h-146v60h146l71 83v94l-71 83h-131l-75 -89v-751h-60v775z" />
    <glyph glyph-name="agrave" unicode="&#xe0;" horiz-adv-x="500" 
d="M380 359l-67 82h-144l-75 -90l-39 48l85 101h202l98 -119v-381h-60v359zM82 29.5q-52 38.5 -52 114.5q0 71 52 108t153 37q96 0 145.5 -37t49.5 -108q0 -76 -49.5 -114.5t-145.5 -38.5q-101 0 -153 38.5zM343 74.5q37 23.5 37 69.5t-37 69.5t-108 23.5t-108 -23.5
t-37 -69.5t37 -69.5t108 -23.5t108 23.5zM242 679l-45 54l39 47l66 -79v-99h-60v77z" />
    <glyph glyph-name="aacute" unicode="&#xe1;" horiz-adv-x="500" 
d="M380 359l-67 82h-144l-75 -90l-39 48l85 101h202l98 -119v-381h-60v359zM82 29.5q-52 38.5 -52 114.5q0 71 52 108t153 37q96 0 145.5 -37t49.5 -108q0 -76 -49.5 -114.5t-145.5 -38.5q-101 0 -153 38.5zM343 74.5q37 23.5 37 69.5t-37 69.5t-108 23.5t-108 -23.5
t-37 -69.5t37 -69.5t108 -23.5t108 23.5zM197 621l45 54v77h60v-99l-66 -79z" />
    <glyph glyph-name="acircumflex" unicode="&#xe2;" horiz-adv-x="500" 
d="M380 359l-67 82h-144l-75 -90l-39 48l85 101h202l98 -119v-381h-60v359zM82 29.5q-52 38.5 -52 114.5q0 71 52 108t153 37q96 0 145.5 -37t49.5 -108q0 -76 -49.5 -114.5t-145.5 -38.5q-101 0 -153 38.5zM343 74.5q37 23.5 37 69.5t-37 69.5t-108 23.5t-108 -23.5
t-37 -69.5t37 -69.5t108 -23.5t108 23.5zM139 627l77 92h70l75 -90l-42 -36l-58 69h-20l-62 -69z" />
    <glyph glyph-name="atilde" unicode="&#xe3;" horiz-adv-x="500" 
d="M380 359l-67 82h-144l-75 -90l-39 48l85 101h202l98 -119v-381h-60v359zM82 29.5q-52 38.5 -52 114.5q0 71 52 108t153 37q96 0 145.5 -37t49.5 -108q0 -76 -49.5 -114.5t-145.5 -38.5q-101 0 -153 38.5zM343 74.5q37 23.5 37 69.5t-37 69.5t-108 23.5t-108 -23.5
t-37 -69.5t37 -69.5t108 -23.5t108 23.5zM95 652l68 82h76l50 -60h20l57 67l39 -45l-68 -82h-76l-50 60h-20l-57 -67z" />
    <glyph glyph-name="adieresis" unicode="&#xe4;" horiz-adv-x="500" 
d="M380 359l-67 82h-144l-75 -90l-39 48l85 101h202l98 -119v-381h-60v359zM82 29.5q-52 38.5 -52 114.5q0 71 52 108t153 37q96 0 145.5 -37t49.5 -108q0 -76 -49.5 -114.5t-145.5 -38.5q-101 0 -153 38.5zM343 74.5q37 23.5 37 69.5t-37 69.5t-108 23.5t-108 -23.5
t-37 -69.5t37 -69.5t108 -23.5t108 23.5zM304 610.5q-14 13.5 -14 32.5t14 33t33 14t33 -14t14 -33t-14 -32.5t-33 -13.5t-33 13.5zM130 610.5q-14 13.5 -14 32.5t14 33t33 14t33 -14t14 -33t-14 -32.5t-33 -13.5t-33 13.5z" />
    <glyph glyph-name="aring" unicode="&#xe5;" horiz-adv-x="500" 
d="M380 359l-67 82h-144l-75 -90l-39 48l85 101h202l98 -119v-381h-60v359zM82 29.5q-52 38.5 -52 114.5q0 71 52 108t153 37q96 0 145.5 -37t49.5 -108q0 -76 -49.5 -114.5t-145.5 -38.5q-101 0 -153 38.5zM343 74.5q37 23.5 37 69.5t-37 69.5t-108 23.5t-108 -23.5
t-37 -69.5t37 -69.5t108 -23.5t108 23.5zM195 592.5q-26 15.5 -41.5 41t-15.5 54.5q0 30 15.5 55.5t41 40.5t55.5 15q29 0 55 -15t41.5 -40.5t15.5 -55.5q0 -28 -16 -54t-42 -41.5t-54 -15.5q-29 0 -55 15.5zM286 652.5q16 15.5 16 35.5q0 21 -15.5 36t-36.5 15t-36.5 -15
t-15.5 -36q0 -20 15.5 -35.5t36.5 -15.5q20 0 36 15.5z" />
    <glyph glyph-name="ae" unicode="&#xe6;" horiz-adv-x="798" 
d="M360 128v126q0 125 51.5 189.5t152.5 64.5q100 0 152 -60t52 -176v-43h-348v-79l76 -90h134l74 89l39 -46l-86 -103h-189zM79.5 27.5q-49.5 36.5 -49.5 107.5q0 76 49.5 115t145.5 39q91 0 138 -39t47 -115q0 -71 -46.5 -107.5t-138.5 -36.5q-96 0 -145.5 36.5zM327.5 72
q32.5 21 32.5 63q0 51 -32.5 76.5t-102.5 25.5q-67 0 -101 -26t-34 -76q0 -41 34 -62.5t101 -21.5q70 0 102.5 21zM360 349l-77 92h-114l-75 -90l-39 48l85 101h172l108 -129v-241h-60v219zM708 289q0 69 -28.5 114t-115.5 45t-115.5 -45t-28.5 -114h288z" />
    <glyph glyph-name="ccedilla" unicode="&#xe7;" horiz-adv-x="493" 
d="M50 128v244l108 128h218l77 -92l-39 -47l-66 79h-162l-76 -91v-199l75 -90h172l66 79l40 -47l-77 -92h-228zM220 -157h59l31 37v10h-87v110h60v-50h90v-90l-66 -77h-87v60z" />
    <glyph glyph-name="egrave" unicode="&#xe8;" horiz-adv-x="498" 
d="M40 128v126q0 125 54 189.5t160 64.5t160 -60t54 -176v-43h-368v-79l76 -90h154l74 89l39 -46l-86 -103h-209zM408 289q0 78 -39 118.5t-115 40.5t-115 -40.5t-39 -118.5h308zM246 679l-45 54l39 47l66 -79v-99h-60v77z" />
    <glyph glyph-name="eacute" unicode="&#xe9;" horiz-adv-x="498" 
d="M40 128v126q0 125 54 189.5t160 64.5t160 -60t54 -176v-43h-368v-79l76 -90h154l74 89l39 -46l-86 -103h-209zM408 289q0 78 -39 118.5t-115 40.5t-115 -40.5t-39 -118.5h308zM201 621l45 54v77h60v-99l-66 -79z" />
    <glyph glyph-name="ecircumflex" unicode="&#xea;" horiz-adv-x="498" 
d="M40 128v126q0 125 54 189.5t160 64.5t160 -60t54 -176v-43h-368v-79l76 -90h154l74 89l39 -46l-86 -103h-209zM408 289q0 78 -39 118.5t-115 40.5t-115 -40.5t-39 -118.5h308zM143 627l77 92h70l75 -90l-42 -36l-58 69h-20l-62 -69z" />
    <glyph glyph-name="edieresis" unicode="&#xeb;" horiz-adv-x="498" 
d="M40 128v126q0 125 54 189.5t160 64.5t160 -60t54 -176v-43h-368v-79l76 -90h154l74 89l39 -46l-86 -103h-209zM408 289q0 78 -39 118.5t-115 40.5t-115 -40.5t-39 -118.5h308zM308 610.5q-14 13.5 -14 32.5t14 33t33 14t33 -14t14 -33t-14 -32.5t-33 -13.5t-33 13.5z
M134 610.5q-14 13.5 -14 32.5t14 33t33 14t33 -14t14 -33t-14 -32.5t-33 -13.5t-33 13.5z" />
    <glyph glyph-name="igrave" unicode="&#xec;" horiz-adv-x="280" 
d="M30 60h80v440h60v-440h80v-60h-220v60zM132 679l-45 54l39 47l66 -79v-99h-60v77z" />
    <glyph glyph-name="iacute" unicode="&#xed;" horiz-adv-x="280" 
d="M30 60h80v440h60v-440h80v-60h-220v60zM87 621l45 54v77h60v-99l-66 -79z" />
    <glyph glyph-name="icircumflex" unicode="&#xee;" horiz-adv-x="290" 
d="M46 659l71 60h70l73 -60l-46 -39l-52 42h-20l-50 -42zM30 60h80v440h60v-440h80v-60h-220v60z" />
    <glyph glyph-name="idieresis" unicode="&#xef;" horiz-adv-x="348" 
d="M218 610.5q-14 13.5 -14 32.5t14 33t33 14t33 -14t14 -33t-14 -32.5t-33 -13.5t-33 13.5zM64 610.5q-14 13.5 -14 32.5t14 33t33 14t33 -14t14 -33t-14 -32.5t-33 -13.5t-33 13.5zM52 60h80v440h60v-440h80v-60h-220v60z" />
    <glyph glyph-name="eth" unicode="&#xf0;" horiz-adv-x="575" 
d="M426 567l-62 73h-127v60h155l94 -112v-328h-60v307zM346 588h209v-60h-209v60zM87.5 57.5q-57.5 65.5 -57.5 192.5t57.5 192.5t170.5 65.5t170.5 -65.5t57.5 -192.5t-57.5 -192.5t-170.5 -65.5t-170.5 65.5zM383.5 102.5q42.5 50.5 42.5 147.5t-42.5 147.5t-125.5 50.5
t-125.5 -50.5t-42.5 -147.5t42.5 -147.5t125.5 -50.5t125.5 50.5z" />
    <glyph glyph-name="ntilde" unicode="&#xf1;" horiz-adv-x="522" 
d="M70 500h60v-66l47 66h178l107 -128v-372h-60v350l-76 91h-120l-76 -90v-351h-60v500zM106 652l68 82h76l50 -60h20l57 67l39 -45l-68 -82h-76l-50 60h-20l-57 -67z" />
    <glyph glyph-name="ograve" unicode="&#xf2;" horiz-adv-x="516" 
d="M87.5 57.5q-57.5 65.5 -57.5 192.5t57.5 192.5t170.5 65.5t170.5 -65.5t57.5 -192.5t-57.5 -192.5t-170.5 -65.5t-170.5 65.5zM383.5 102.5q42.5 50.5 42.5 147.5t-42.5 147.5t-125.5 50.5t-125.5 -50.5t-42.5 -147.5t42.5 -147.5t125.5 -50.5t125.5 50.5zM250 679
l-45 54l39 47l66 -79v-99h-60v77z" />
    <glyph glyph-name="oacute" unicode="&#xf3;" horiz-adv-x="516" 
d="M87.5 57.5q-57.5 65.5 -57.5 192.5t57.5 192.5t170.5 65.5t170.5 -65.5t57.5 -192.5t-57.5 -192.5t-170.5 -65.5t-170.5 65.5zM383.5 102.5q42.5 50.5 42.5 147.5t-42.5 147.5t-125.5 50.5t-125.5 -50.5t-42.5 -147.5t42.5 -147.5t125.5 -50.5t125.5 50.5zM205 621l45 54
v77h60v-99l-66 -79z" />
    <glyph glyph-name="ocircumflex" unicode="&#xf4;" horiz-adv-x="516" 
d="M87.5 57.5q-57.5 65.5 -57.5 192.5t57.5 192.5t170.5 65.5t170.5 -65.5t57.5 -192.5t-57.5 -192.5t-170.5 -65.5t-170.5 65.5zM383.5 102.5q42.5 50.5 42.5 147.5t-42.5 147.5t-125.5 50.5t-125.5 -50.5t-42.5 -147.5t42.5 -147.5t125.5 -50.5t125.5 50.5zM147 627l77 92
h70l75 -90l-42 -36l-58 69h-20l-62 -69z" />
    <glyph glyph-name="otilde" unicode="&#xf5;" horiz-adv-x="516" 
d="M87.5 57.5q-57.5 65.5 -57.5 192.5t57.5 192.5t170.5 65.5t170.5 -65.5t57.5 -192.5t-57.5 -192.5t-170.5 -65.5t-170.5 65.5zM383.5 102.5q42.5 50.5 42.5 147.5t-42.5 147.5t-125.5 50.5t-125.5 -50.5t-42.5 -147.5t42.5 -147.5t125.5 -50.5t125.5 50.5zM103 652l68 82
h76l50 -60h20l57 67l39 -45l-68 -82h-76l-50 60h-20l-57 -67z" />
    <glyph glyph-name="odieresis" unicode="&#xf6;" horiz-adv-x="516" 
d="M87.5 57.5q-57.5 65.5 -57.5 192.5t57.5 192.5t170.5 65.5t170.5 -65.5t57.5 -192.5t-57.5 -192.5t-170.5 -65.5t-170.5 65.5zM383.5 102.5q42.5 50.5 42.5 147.5t-42.5 147.5t-125.5 50.5t-125.5 -50.5t-42.5 -147.5t42.5 -147.5t125.5 -50.5t125.5 50.5zM312 610.5
q-14 13.5 -14 32.5t14 33t33 14t33 -14t14 -33t-14 -32.5t-33 -13.5t-33 13.5zM138 610.5q-14 13.5 -14 32.5t14 33t33 14t33 -14t14 -33t-14 -32.5t-33 -13.5t-33 13.5z" />
    <glyph glyph-name="divide" unicode="&#xf7;" 
d="M40 306h520v-60h-520v60zM261 57q-15 15 -15 35q0 22 15 37t36 15t36.5 -15.5t15.5 -36.5q0 -20 -16 -35t-36 -15q-21 0 -36 15zM261 422q-15 15 -15 35q0 22 15 37t36 15t36.5 -15.5t15.5 -36.5q0 -20 -16 -35t-36 -15q-21 0 -36 15z" />
    <glyph glyph-name="oslash" unicode="&#xf8;" horiz-adv-x="537" 
d="M439 500h78l-420 -500h-77zM96.5 57.5q-57.5 65.5 -57.5 192.5t57.5 192.5t170.5 65.5t170.5 -65.5t57.5 -192.5t-57.5 -192.5t-170.5 -65.5t-170.5 65.5zM392.5 102.5q42.5 50.5 42.5 147.5t-42.5 147.5t-125.5 50.5t-125.5 -50.5t-42.5 -147.5t42.5 -147.5t125.5 -50.5
t125.5 50.5z" />
    <glyph glyph-name="ugrave" unicode="&#xf9;" horiz-adv-x="522" 
d="M452 0h-60v66l-47 -66h-178l-107 128v372h60v-350l76 -91h120l76 90v351h60v-500zM253 679l-45 54l39 47l66 -79v-99h-60v77z" />
    <glyph glyph-name="uacute" unicode="&#xfa;" horiz-adv-x="522" 
d="M452 0h-60v66l-47 -66h-178l-107 128v372h60v-350l76 -91h120l76 90v351h60v-500zM208 621l45 54v77h60v-99l-66 -79z" />
    <glyph glyph-name="ucircumflex" unicode="&#xfb;" horiz-adv-x="522" 
d="M452 0h-60v66l-47 -66h-178l-107 128v372h60v-350l76 -91h120l76 90v351h60v-500zM150 627l77 92h70l75 -90l-42 -36l-58 69h-20l-62 -69z" />
    <glyph glyph-name="udieresis" unicode="&#xfc;" horiz-adv-x="522" 
d="M452 0h-60v66l-47 -66h-178l-107 128v372h60v-350l76 -91h120l76 90v351h60v-500zM315 610.5q-14 13.5 -14 32.5t14 33t33 14t33 -14t14 -33t-14 -32.5t-33 -13.5t-33 13.5zM141 610.5q-14 13.5 -14 32.5t14 33t33 14t33 -14t14 -33t-14 -32.5t-33 -13.5t-33 13.5z" />
    <glyph glyph-name="yacute" unicode="&#xfd;" horiz-adv-x="492" 
d="M180 -117l39 44l56 -67h40l47 54v86h-80l-242 295v205h60v-187l215 -255h47v442h60v-608l-80 -92h-96zM193 621l45 54v77h60v-99l-66 -79z" />
    <glyph glyph-name="thorn" unicode="&#xfe;" horiz-adv-x="556" 
d="M135.5 57.5q-55.5 65.5 -55.5 192.5t55.5 192.5t162.5 65.5q113 0 170.5 -65.5t57.5 -192.5t-57.5 -192.5t-170.5 -65.5q-107 0 -162.5 65.5zM70 700h60v-900h-60v900zM423.5 102.5q42.5 50.5 42.5 147.5t-42.5 147.5t-125.5 50.5t-125.5 -50.5t-42.5 -147.5t42.5 -147.5
t125.5 -50.5t125.5 50.5z" />
    <glyph glyph-name="ydieresis" unicode="&#xff;" horiz-adv-x="492" 
d="M180 -117l39 44l56 -67h40l47 54v86h-80l-242 295v205h60v-187l215 -255h47v442h60v-608l-80 -92h-96zM300 610.5q-14 13.5 -14 32.5t14 33t33 14t33 -14t14 -33t-14 -32.5t-33 -13.5t-33 13.5zM126 610.5q-14 13.5 -14 32.5t14 33t33 14t33 -14t14 -33t-14 -32.5
t-33 -13.5t-33 13.5z" />
    <glyph glyph-name="dotlessi" unicode="&#x131;" horiz-adv-x="280" 
d="M30 60h80v440h60v-440h80v-60h-220v60z" />
    <glyph glyph-name="OE" unicode="&#x152;" horiz-adv-x="856" 
d="M112.5 89q-72.5 89 -72.5 261t72.5 261t212.5 89h151v-700h-151q-140 0 -212.5 89zM416 60v580h-91q-111 0 -168 -73.5t-57 -216.5t57 -216.5t168 -73.5h91zM416 700h390v-60h-330v-240h280v-60h-280v-280h330v-60h-390v700z" />
    <glyph glyph-name="oe" unicode="&#x153;" horiz-adv-x="844" 
d="M85.5 57.5q-55.5 65.5 -55.5 192.5t55.5 192.5t162.5 65.5t162.5 -65.5t55.5 -192.5t-55.5 -192.5t-162.5 -65.5t-162.5 65.5zM367.5 101.5q38.5 49.5 38.5 148.5t-38.5 148.5t-119.5 49.5q-78 0 -118 -50t-40 -148t40 -148t118 -50q81 0 119.5 49.5zM406 128v126
q0 127 50 190.5t154 63.5t154 -59t50 -177v-43h-348v-79l76 -90h134l74 89l39 -46l-86 -103h-189zM754 289q0 69 -28.5 114t-115.5 45t-115.5 -45t-28.5 -114h288z" />
    <glyph glyph-name="Wcircumflex" unicode="&#x174;" horiz-adv-x="850" 
d="M70 152v548h60v-526l98 -114h70l97 114v486h60v-486l97 -113h70l98 113v526h60v-548l-130 -152h-126l-97 115h-4l-98 -115h-125zM314 805l77 92h70l75 -90l-42 -36l-58 69h-20l-62 -69z" />
    <glyph glyph-name="wcircumflex" unicode="&#x175;" horiz-adv-x="712" 
d="M60 132v368h60v-346l78 -94h50l78 94v306h60v-306l78 -93h50l78 93v346h60v-368l-110 -132h-107l-77 94h-4l-78 -94h-106zM245 627l77 92h70l75 -90l-42 -36l-58 69h-20l-62 -69z" />
    <glyph glyph-name="Ycircumflex" unicode="&#x176;" horiz-adv-x="528" 
d="M234 265l-214 255v180h60v-158l180 -215h8l180 215v158h60v-180l-214 -255v-265h-60v265zM153 805l77 92h70l75 -90l-42 -36l-58 69h-20l-62 -69z" />
    <glyph glyph-name="ycircumflex" unicode="&#x177;" horiz-adv-x="492" 
d="M180 -117l39 44l56 -67h40l47 54v86h-80l-242 295v205h60v-187l215 -255h47v442h60v-608l-80 -92h-96zM135 627l77 92h70l75 -90l-42 -36l-58 69h-20l-62 -69z" />
    <glyph glyph-name="Ydieresis" unicode="&#x178;" horiz-adv-x="528" 
d="M234 265l-214 255v180h60v-158l180 -215h8l180 215v158h60v-180l-214 -255v-265h-60v265zM351 776.5q-14 13.5 -14 32.5t14 33t33 14t33 -14t14 -33t-14 -32.5t-33 -13.5t-33 13.5zM111 776.5q-14 13.5 -14 32.5t14 33t33 14t33 -14t14 -33t-14 -32.5t-33 -13.5t-33 13.5
z" />
    <glyph glyph-name="uni0237" unicode="&#x237;" horiz-adv-x="252" 
d="M-60 -118l39 45l57 -67h40l46 54v586h60v-607l-78 -93h-96z" />
    <glyph glyph-name="circumflex" unicode="&#x2c6;" horiz-adv-x="358" 
d="M66 627l77 92h70l75 -90l-42 -36l-58 69h-20l-62 -69z" />
    <glyph glyph-name="caron" unicode="&#x2c7;" horiz-adv-x="358" 
d="M66 694l77 -92h70l75 90l-42 36l-58 -69h-20l-62 69z" />
    <glyph glyph-name="breve" unicode="&#x2d8;" horiz-adv-x="208" 
d="M-20 718l36 43l52 -61h72l52 61l36 -43l-66 -78h-116z" />
    <glyph glyph-name="dotaccent" unicode="&#x2d9;" horiz-adv-x="233" 
d="M76.5 620q-16.5 16 -16.5 39q0 24 16.5 40.5t39.5 16.5t40 -16.5t17 -40.5q0 -22 -17 -38.5t-40 -16.5t-39.5 16z" />
    <glyph glyph-name="ring" unicode="&#x2da;" horiz-adv-x="304" 
d="M97 592.5q-26 15.5 -41.5 41t-15.5 54.5q0 30 15.5 55.5t41 40.5t55.5 15q29 0 55 -15t41.5 -40.5t15.5 -55.5q0 -28 -16 -54t-42 -41.5t-54 -15.5q-29 0 -55 15.5zM188 652.5q16 15.5 16 35.5q0 21 -15.5 36t-36.5 15t-36.5 -15t-15.5 -36q0 -20 15.5 -35.5t36.5 -15.5
q20 0 36 15.5z" />
    <glyph glyph-name="ogonek" unicode="&#x2db;" horiz-adv-x="233" 
d="M40 -93l66 77h87v-60h-59l-31 -37v-27h87v-60h-150v107z" />
    <glyph glyph-name="tilde" unicode="&#x2dc;" horiz-adv-x="390" 
d="M40 652l68 82h76l50 -60h20l57 67l39 -45l-68 -82h-76l-50 60h-20l-57 -67z" />
    <glyph glyph-name="hungarumlaut" unicode="&#x2dd;" horiz-adv-x="296" 
d="M151 609l45 54v107h60v-129l-66 -79zM40 639l45 54v77h60v-99l-66 -79z" />
    <glyph glyph-name="gravecomb" unicode="&#x300;" horiz-adv-x="0" 
d="M-372 679l-45 54l39 47l66 -79v-99h-60v77z" />
    <glyph glyph-name="acutecomb" unicode="&#x301;" horiz-adv-x="0" 
d="M-389 621l45 54v77h60v-99l-66 -79z" />
    <glyph glyph-name="uni0302" unicode="&#x302;" horiz-adv-x="0" 
d="M-461 627l77 92h70l75 -90l-42 -36l-58 69h-20l-62 -69z" />
    <glyph glyph-name="tildecomb" unicode="&#x303;" horiz-adv-x="0" 
d="M-376 652l68 82h76l50 -60h20l57 67l39 -45l-68 -82h-76l-50 60h-20l-57 -67z" />
    <glyph glyph-name="uni0307" unicode="&#x307;" horiz-adv-x="0" 
d="M-310.5 620q-16.5 16 -16.5 39q0 24 16.5 40.5t39.5 16.5t40 -16.5t17 -40.5q0 -22 -17 -38.5t-40 -16.5t-39.5 16z" />
    <glyph glyph-name="uni0308" unicode="&#x308;" horiz-adv-x="0" 
d="M-157 610.5q-14 13.5 -14 32.5t14 33t33 14t33 -14t14 -33t-14 -32.5t-33 -13.5t-33 13.5zM-331 610.5q-14 13.5 -14 32.5t14 33t33 14t33 -14t14 -33t-14 -32.5t-33 -13.5t-33 13.5z" />
    <glyph glyph-name="uni030A" unicode="&#x30a;" horiz-adv-x="0" 
d="M-369 592.5q-26 15.5 -41.5 41t-15.5 54.5q0 30 15.5 55.5t41 40.5t55.5 15q29 0 55 -15t41.5 -40.5t15.5 -55.5q0 -28 -16 -54t-42 -41.5t-54 -15.5q-29 0 -55 15.5zM-278 652.5q16 15.5 16 35.5q0 21 -15.5 36t-36.5 15t-36.5 -15t-15.5 -36q0 -20 15.5 -35.5
t36.5 -15.5q20 0 36 15.5z" />
    <glyph glyph-name="uni0327" unicode="&#x327;" horiz-adv-x="0" 
d="M-255 -157h59l31 37v10h-87v110h60v-50h90v-90l-66 -77h-87v60z" />
    <glyph glyph-name="uni0335" unicode="&#x335;" horiz-adv-x="0" 
d="M-550 326h500v-60h-500v60z" />
    <glyph glyph-name="uni0338" unicode="&#x338;" horiz-adv-x="0" 
d="M-71 700h78l-588 -700h-77z" />
    <glyph glyph-name="Wgrave" unicode="&#x1e80;" horiz-adv-x="850" 
d="M70 152v548h60v-526l98 -114h70l97 114v486h60v-486l97 -113h70l98 113v526h60v-548l-130 -152h-126l-97 115h-4l-98 -115h-125zM417 869l-45 54l39 47l66 -79v-99h-60v77z" />
    <glyph glyph-name="wgrave" unicode="&#x1e81;" horiz-adv-x="712" 
d="M60 132v368h60v-346l78 -94h50l78 94v306h60v-306l78 -93h50l78 93v346h60v-368l-110 -132h-107l-77 94h-4l-78 -94h-106zM348 679l-45 54l39 47l66 -79v-99h-60v77z" />
    <glyph glyph-name="Wacute" unicode="&#x1e82;" horiz-adv-x="850" 
d="M70 152v548h60v-526l98 -114h70l97 114v486h60v-486l97 -113h70l98 113v526h60v-548l-130 -152h-126l-97 115h-4l-98 -115h-125zM372 841l45 54v77h60v-99l-66 -79z" />
    <glyph glyph-name="wacute" unicode="&#x1e83;" horiz-adv-x="712" 
d="M60 132v368h60v-346l78 -94h50l78 94v306h60v-306l78 -93h50l78 93v346h60v-368l-110 -132h-107l-77 94h-4l-78 -94h-106zM303 621l45 54v77h60v-99l-66 -79z" />
    <glyph glyph-name="Wdieresis" unicode="&#x1e84;" horiz-adv-x="850" 
d="M70 152v548h60v-526l98 -114h70l97 114v486h60v-486l97 -113h70l98 113v526h60v-548l-130 -152h-126l-97 115h-4l-98 -115h-125zM512 776.5q-14 13.5 -14 32.5t14 33t33 14t33 -14t14 -33t-14 -32.5t-33 -13.5t-33 13.5zM272 776.5q-14 13.5 -14 32.5t14 33t33 14t33 -14
t14 -33t-14 -32.5t-33 -13.5t-33 13.5z" />
    <glyph glyph-name="wdieresis" unicode="&#x1e85;" horiz-adv-x="712" 
d="M60 132v368h60v-346l78 -94h50l78 94v306h60v-306l78 -93h50l78 93v346h60v-368l-110 -132h-107l-77 94h-4l-78 -94h-106zM410 610.5q-14 13.5 -14 32.5t14 33t33 14t33 -14t14 -33t-14 -32.5t-33 -13.5t-33 13.5zM236 610.5q-14 13.5 -14 32.5t14 33t33 14t33 -14
t14 -33t-14 -32.5t-33 -13.5t-33 13.5z" />
    <glyph glyph-name="uni1E9E" unicode="&#x1e9e;" 
 />
    <glyph glyph-name="Ygrave" unicode="&#x1ef2;" horiz-adv-x="528" 
d="M234 265l-214 255v180h60v-158l180 -215h8l180 215v158h60v-180l-214 -255v-265h-60v265zM256 869l-45 54l39 47l66 -79v-99h-60v77z" />
    <glyph glyph-name="ygrave" unicode="&#x1ef3;" horiz-adv-x="492" 
d="M180 -117l39 44l56 -67h40l47 54v86h-80l-242 295v205h60v-187l215 -255h47v442h60v-608l-80 -92h-96zM238 679l-45 54l39 47l66 -79v-99h-60v77z" />
    <glyph glyph-name="uni2007" unicode="&#x2007;" 
 />
    <glyph glyph-name="uni200B" unicode="&#x200b;" horiz-adv-x="0" 
 />
    <glyph glyph-name="endash" unicode="&#x2013;" horiz-adv-x="620" 
d="M60 326h500v-60h-500v60z" />
    <glyph glyph-name="emdash" unicode="&#x2014;" horiz-adv-x="820" 
d="M60 326h700v-60h-700v60z" />
    <glyph glyph-name="quoteleft" unicode="&#x2018;" horiz-adv-x="215" 
d="M175 670l-65 -74v-77h-60v99l86 99z" />
    <glyph glyph-name="quoteright" unicode="&#x2019;" horiz-adv-x="215" 
d="M40 549l65 74v77h60v-99l-86 -99z" />
    <glyph glyph-name="quotesinglbase" unicode="&#x201a;" horiz-adv-x="205" 
d="M30 -36l45 54v77h60v-99l-66 -79z" />
    <glyph glyph-name="quotedblleft" unicode="&#x201c;" horiz-adv-x="336" 
d="M60 637l66 79l39 -47l-45 -54v-107h-60v129zM171 607l66 79l39 -47l-45 -54v-77h-60v99z" />
    <glyph glyph-name="quotedblright" unicode="&#x201d;" horiz-adv-x="336" 
d="M276 700v-129l-66 -79l-39 47l45 54v107h60zM165 700v-99l-66 -79l-39 47l45 54v77h60z" />
    <glyph glyph-name="quotedblbase" unicode="&#x201e;" horiz-adv-x="316" 
d="M141 -66l45 54v107h60v-129l-66 -79zM30 -36l45 54v77h60v-99l-66 -79z" />
    <glyph glyph-name="dagger" unicode="&#x2020;" horiz-adv-x="460" 
d="M200 741h60v-520h-60v520zM60 594h340v-60h-340v60z" />
    <glyph glyph-name="bullet" unicode="&#x2022;" horiz-adv-x="301" 
d="M100 173.5q-23 13.5 -36.5 36t-13.5 48.5q0 28 13.5 51.5t36.5 37t50 13.5q26 0 49 -13.5t37.5 -37t14.5 -51.5q0 -26 -14.5 -48.5t-37.5 -36t-49 -13.5q-27 0 -50 13.5z" />
    <glyph glyph-name="ellipsis" unicode="&#x2026;" horiz-adv-x="783" 
d="M615 7q-15 15 -15 35q0 22 15 37t36 15t36.5 -15.5t15.5 -36.5q0 -20 -16 -35t-36 -15q-21 0 -36 15zM95 7q-15 15 -15 35q0 22 15 37t36 15t36.5 -15.5t15.5 -36.5q0 -20 -16 -35t-36 -15q-21 0 -36 15zM355 7q-15 15 -15 35q0 22 15 37t36 15t36.5 -15.5t15.5 -36.5
q0 -20 -16 -35t-36 -15q-21 0 -36 15z" />
    <glyph glyph-name="perthousand" unicode="&#x2030;" horiz-adv-x="878" 
d="M127 509.5q-26 15.5 -41.5 41t-15.5 54.5q0 30 15.5 55.5t41 40.5t55.5 15q29 0 55 -15t41.5 -40.5t15.5 -55.5q0 -28 -16 -54t-42 -41.5t-54 -15.5q-29 0 -55 15.5zM432 0.5q-26 15.5 -41.5 41t-15.5 54.5q0 30 15.5 55.5t41 40.5t55.5 15q29 0 55 -15t41.5 -40.5
t15.5 -55.5q0 -28 -16 -54t-42 -41.5t-54 -15.5q-29 0 -55 15.5zM523 60.5q16 15.5 16 35.5q0 21 -15.5 36t-36.5 15t-36.5 -15t-15.5 -36q0 -20 15.5 -35.5t36.5 -15.5q20 0 36 15.5zM218 569.5q16 15.5 16 35.5q0 21 -15.5 36t-36.5 15t-36.5 -15t-15.5 -36
q0 -20 15.5 -35.5t36.5 -15.5q20 0 36 15.5zM587 700h78l-588 -700h-77zM691 0.5q-26 15.5 -41.5 41t-15.5 54.5q0 30 15.5 55.5t41 40.5t55.5 15q29 0 55 -15t41.5 -40.5t15.5 -55.5q0 -28 -16 -54t-42 -41.5t-54 -15.5q-29 0 -55 15.5zM782 60.5q16 15.5 16 35.5
q0 21 -15.5 36t-36.5 15t-36.5 -15t-15.5 -36q0 -20 15.5 -35.5t36.5 -15.5q20 0 36 15.5z" />
    <glyph glyph-name="guilsinglleft" unicode="&#x2039;" horiz-adv-x="258" 
d="M50 239v70l139 166l39 -46l-121 -145v-20l121 -147l-39 -46z" />
    <glyph glyph-name="guilsinglright" unicode="&#x203a;" horiz-adv-x="258" 
d="M30 117l121 147v20l-121 145l39 46l139 -166v-70l-139 -168z" />
    <glyph glyph-name="Euro" unicode="&#x20ac;" 
d="M159 137v118h-94v60h94v90h-94v60h94v98l114 136h238v-60h-211l-81 -98v-76h165v-60h-165v-90h165v-60h-165v-96l81 -98h225v-60h-252z" />
    <glyph glyph-name="arrowleft" unicode="&#x2190;" 
d="M153 108l-130 154v24l130 153l-39 46l-174 -205v-12l174 -206zM560 304h-550v-60h550v60z" />
    <glyph glyph-name="arrowup" unicode="&#x2191;" horiz-adv-x="433" 
d="M40 498l171 203h12l170 -203l-39 -46l-140 166h6l-142 -166zM187 631h60v-630h-60v630z" />
    <glyph glyph-name="arrowright" unicode="&#x2192;" horiz-adv-x="700" 
d="M447 108l130 154v24l-130 153l39 46l174 -205v-12l-174 -206zM40 304h550v-60h-550v60z" />
    <glyph glyph-name="arrowdown" unicode="&#x2193;" horiz-adv-x="433" 
d="M40 202l171 -203h12l170 203l-39 46l-140 -166h6l-142 166zM187 69h60v630h-60v-630z" />
    <glyph glyph-name="uni2196" unicode="&#x2196;" horiz-adv-x="558" 
d="M39.5469 427.204l0.514648 265.421l9.19238 7.71289l260.71 -46.2383l-0.30957 -60.3066l-213.945 37.1777l4.5957 3.85742l-2.08105 -218.438zM66.6699 623.575l45.9629 38.5654l404.939 -482.612l-45.9629 -38.5654z" />
    <glyph glyph-name="uni2197" unicode="&#x2197;" horiz-adv-x="557" 
d="M246.737 653.783l261.476 45.5967l9.19238 -7.71289l-0.251953 -264.778l-59.4424 -10.1709l-0.548828 217.151l4.5957 -3.85645l-215.478 -35.8926zM444.834 661.183l45.9629 -38.5654l-404.939 -482.613l-45.9629 38.5654z" />
    <glyph glyph-name="uni2198" unicode="&#x2198;" horiz-adv-x="557" 
d="M246.737 45.2168l261.476 -45.5967l9.19238 7.71289l-0.251953 264.778l-59.4424 10.1709l-0.548828 -217.151l4.5957 3.85645l-215.478 35.8926zM444.834 37.8174l45.9629 38.5654l-404.939 482.613l-45.9629 -38.5654z" />
    <glyph glyph-name="uni2199" unicode="&#x2199;" horiz-adv-x="558" 
d="M39.5469 272.796l0.514648 -265.421l9.19238 -7.71289l260.71 46.2383l-0.30957 60.3066l-213.945 -37.1777l4.5957 -3.85742l-2.08105 218.438zM66.6699 76.4248l45.9629 -38.5654l404.939 482.612l-45.9629 38.5654z" />
    <glyph glyph-name="minus" unicode="&#x2212;" 
d="M40 306h520v-60h-520v60z" />
    <glyph glyph-name="integral" unicode="&#x222b;" 
d="M177 -112l93 112v580l114 136l39 -46l-93 -112v-580l-114 -136z" />
    <glyph glyph-name="approxequal" unicode="&#x2248;" 
d="M125 343l68 82h96l50 -60h40l57 67l39 -45l-68 -82h-96l-50 60h-40l-57 -67zM125 191l68 82h96l50 -60h40l57 67l39 -45l-68 -82h-96l-50 60h-40l-57 -67z" />
    <glyph glyph-name="notequal" unicode="&#x2260;" 
d="M392 443h78l-254 -302h-77zM70 379h460v-60h-460v60zM70 259h460v-60h-460v60z" />
    <glyph glyph-name="lessequal" unicode="&#x2264;" 
d="M400 60h-200v-60h200v60zM389 159l-121 147v20l121 145l-39 46l-139 -166v-70l139 -168z" />
    <glyph glyph-name="greaterequal" unicode="&#x2265;" 
d="M200 60h200v-60h-200v60zM211 159l121 147v20l-121 145l39 46l139 -166v-70l-139 -168z" />
    <glyph glyph-name="fi" unicode="&#xfb01;" horiz-adv-x="555" 
d="M305 60h80v440h60v-440h80v-60h-220v60zM130 440h-100v60h100v88l94 112h115l86 -103l-39 -47l-76 90h-58l-62 -73v-67h149v-60h-149v-440h-60v440z" />
    <glyph glyph-name="fl" unicode="&#xfb02;" horiz-adv-x="511" 
d="M130 440h-100v60h100v88l94 112h195v-60h-167l-62 -73v-67h149v-60h-149v-440h-60v440zM381 640h-80v60h140v-700h-60v640z" />
    <glyph glyph-name="uniFEFF" unicode="&#xfeff;" horiz-adv-x="0" 
 />
    <glyph glyph-name="f_j" horiz-adv-x="516" 
d="M204 -118l39 45l57 -67h40l46 54v586h60v-607l-78 -93h-96zM130 440h-100v60h100v88l94 112h115l86 -103l-39 -47l-76 90h-58l-62 -73v-67h149v-60h-149v-440h-60v440z" />
    <glyph glyph-name="zero.tf" 
d="M88 130l362 431l71 -8l-360 -429zM113.5 83q-63.5 91 -63.5 267t63.5 267t186.5 91t186.5 -91t63.5 -267t-63.5 -267t-186.5 -91t-186.5 91zM442 127.5q48 75.5 48 222.5t-48 222.5t-142 75.5t-142 -75.5t-48 -222.5t48 -222.5t142 -75.5t142 75.5z" />
    <glyph glyph-name="one.tf" 
d="M382 640h-20l-220 -263l-39 47l231 276h108v-700h-60v640z" />
    <glyph glyph-name="two.tf" 
d="M85 175l140 166h158l67 78v133l-74 88h-174l-77 -92l-40 46l89 106h231l105 -126v-177l-99 -116h-158l-108 -128v-93h365v-60h-425v175z" />
    <glyph glyph-name="three.tf" 
d="M70 106l40 46l77 -92h184l74 88v104l-57 68h-153v60h153l57 68v104l-74 88h-154l-77 -92l-40 46l89 106h211l105 -126v-148l-63 -75l63 -77v-148l-105 -126h-241z" />
    <glyph glyph-name="four.tf" 
d="M110 539l148 176l40 -47l-128 -152v-256h363v-60h-423v339zM398 500h60v-500h-60v500z" />
    <glyph glyph-name="five.tf" 
d="M105 106l40 46l77 -92h184l74 88v104l-57 68h-288v380h335v-60h-275v-260h256l89 -106v-148l-105 -126h-241z" />
    <glyph glyph-name="six.tf" 
d="M80 574l105 126h241l89 -106l-40 -46l-77 92h-184l-74 -88v-362h-60v384zM136.5 41.5q-56.5 50.5 -56.5 148.5q0 57 28 100.5t78.5 67t116.5 23.5q110 0 166.5 -48.5t56.5 -142.5q0 -98 -56.5 -148.5t-166.5 -50.5t-166.5 50.5zM424.5 86.5q41.5 35.5 41.5 103.5
q0 64 -41.5 97.5t-121.5 33.5t-121.5 -33.5t-41.5 -97.5q0 -68 41.5 -103.5t121.5 -35.5t121.5 35.5z" />
    <glyph glyph-name="seven.tf" 
d="M99 112l342 408v120h-342v60h402v-200l-342 -408v-92h-60v112z" />
    <glyph glyph-name="eight.tf" 
d="M124 41.5q-60 49.5 -60 144.5q0 77 25.5 119.5t74.5 49.5q-37 13 -56 53.5t-19 105.5q0 95 53.5 144.5t157.5 49.5t157.5 -49.5t53.5 -144.5q0 -65 -19 -105.5t-56 -53.5q49 -7 74.5 -49.5t25.5 -119.5q0 -95 -60 -144.5t-176 -49.5t-176 49.5zM431.5 86
q44.5 34 44.5 100t-44.5 100t-131.5 34t-131.5 -34t-44.5 -100t44.5 -100t131.5 -34t131.5 34zM412.5 414q38.5 34 38.5 100t-38.5 100t-112.5 34t-112.5 -34t-38.5 -100t38.5 -100t112.5 -34t112.5 34z" />
    <glyph glyph-name="nine.tf" 
d="M520 126l-105 -126h-241l-89 106l40 46l77 -92h184l74 88v362h60v-384zM463.5 658.5q56.5 -50.5 56.5 -148.5q0 -57 -28 -100.5t-78.5 -67t-116.5 -23.5q-110 0 -166.5 48.5t-56.5 142.5q0 98 56.5 148.5t166.5 50.5t166.5 -50.5zM175.5 613.5q-41.5 -35.5 -41.5 -103.5
q0 -64 41.5 -97.5t121.5 -33.5t121.5 33.5t41.5 97.5q0 68 -41.5 103.5t-121.5 35.5t-121.5 -35.5z" />
    <glyph glyph-name="currency.tf" 
d="M86 145l44 53q-28 48 -28 120t28 120l-44 53l39 46l46 -55q51 34 129 34t129 -34l46 55l39 -46l-44 -53q28 -48 28 -120t-28 -120l44 -53l-39 -46l-46 55q-51 -34 -129 -34t-129 34l-46 -55zM403 212q35 36 35 106q0 68 -35 103t-103 35t-103 -35t-35 -103q0 -70 35 -106
t103 -36t103 36z" />
    <glyph glyph-name="dollar.tf" 
d="M80 106l40 46l77 -92h188l75 88v104l-57 68h-234l-89 106v148l105 126h246l89 -106l-40 -46l-77 92h-189l-74 -88v-104l57 -68h234l89 -106v-148l-105 -126h-246zM270 760h60v-820h-60v820z" />
    <glyph glyph-name="Euro.tf" 
d="M164 137v118h-94v60h94v90h-94v60h94v98l114 136h238v-60h-211l-81 -98v-76h165v-60h-165v-90h165v-60h-165v-96l81 -98h225v-60h-252z" />
    <glyph glyph-name="uni0308.case" horiz-adv-x="0" 
d="M-202 776.5q-14 13.5 -14 32.5t14 33t33 14t33 -14t14 -33t-14 -32.5t-33 -13.5t-33 13.5zM-442 776.5q-14 13.5 -14 32.5t14 33t33 14t33 -14t14 -33t-14 -32.5t-33 -13.5t-33 13.5z" />
    <glyph glyph-name="gravecomb.case" horiz-adv-x="0" 
d="M-100 869l-45 54l39 47l66 -79v-99h-60v77z" />
    <glyph glyph-name="acutecomb.case" horiz-adv-x="0" 
d="M-321 841l45 54v77h60v-99l-66 -79z" />
    <glyph glyph-name="uni0302.case" horiz-adv-x="0" 
d="M-255 805l77 92h70l75 -90l-42 -36l-58 69h-20l-62 -69z" />
    </font>
</defs>
</svg>
