<!-- Generated by IcoMoon.io -->
<svg version="1.1" xmlns="http://www.w3.org/2000/svg" width="227" height="32" viewBox="0 0 227 32">
<title>logo</title>
<path d="M0 0.313h10.95q5.318 0 8.022 2.145t2.704 6.346c0.004 0.103 0.007 0.223 0.007 0.344 0 1.513-0.392 2.934-1.079 4.168l0.022-0.044c-0.706 1.155-1.785 2.024-3.066 2.447l-0.040 0.011c1.612 0.164 3.001 1 3.9 2.22l0.011 0.015q1.341 1.877 1.341 5.14 0 4.201-2.704 6.346t-8 2.145h-12.067zM10.95 14.168q3.525 0 5.341-1.363c1.111-0.868 1.819-2.207 1.819-3.713 0-0.101-0.003-0.202-0.009-0.301l0.001 0.014c0.003-0.061 0.005-0.132 0.005-0.204 0-1.416-0.714-2.665-1.801-3.407l-0.014-0.009q-1.81-1.251-5.341-1.251h-7.374v10.235zM12.067 28.022q3.525 0 5.341-1.296c1.106-0.804 1.817-2.093 1.817-3.549 0-0.088-0.003-0.175-0.008-0.262l0.001 0.012c0.004-0.073 0.007-0.158 0.007-0.244 0-1.464-0.71-2.762-1.805-3.569l-0.012-0.009q-1.81-1.318-5.341-1.318h-8.492v10.235z"></path>
<path d="M27.709 0.358h3.575v27.709h15.196v3.575h-18.771z"></path>
<path d="M49.609 9.296q0-4.598 2.927-6.95t8.603-2.346q5.676 0 8.603 2.346t2.927 6.95v22.346h-3.575v-12.961h-15.911v12.961h-3.575zM69.095 15.106v-5.631c0-1.939-0.67-3.402-2.011-4.402s-3.352-1.497-5.944-1.497-4.603 0.497-5.944 1.497-2.011 2.464-2.011 4.402v5.631z"></path>
<path d="M78.034 24.492v-16.939l6.034-7.196h13.855l5.229 6.257-2.324 2.793-4.648-5.497h-10.413l-4.156 4.961v14.056l4.335 5.14h10.704l4.648-5.542 2.324 2.86-5.251 6.257h-14.302z"></path>
<path d="M108.514 0.358h3.575v31.285h-3.575zM126.034 24.492l-5.631-6.704h-10.816v-3.575h10.816l4.29-5.028v-8.827h3.575v10.235l-4.425 5.229v0.358l5.765 6.883v8.581h-3.575z"></path>
<path d="M149.207 27.933q-3.514-4.067-3.508-11.933t3.508-11.933 10.257-4.067q6.838 0 10.302 4.067t3.464 11.933q0 7.872-3.464 11.933t-10.302 4.067q-6.754 0-10.257-4.067zM167.084 25.274q2.57-3.128 2.57-9.274t-2.548-9.274q-2.548-3.151-7.642-3.151t-7.598 3.151q-2.598 3.128-2.592 9.274t2.592 9.274q2.592 3.151 7.598 3.151 5.095 0 7.642-3.151z"></path>
<path d="M177.698 24.804v-24.447h3.575v23.017l3.911 4.737h8.894l3.911-4.737v-23.017h3.575v24.447l-5.721 6.838h-12.38z"></path>
<path d="M213.899 3.933h-9.609v-3.575h22.793v3.575h-9.609v27.709h-3.575z"></path>
</svg>
