{
    "accessors" : [
        {
            "bufferView" : 0,
            "componentType" : 5123,
            "count" : 1074,
            "max" : [
                715
            ],
            "min" : [
                0
            ],
            "type" : "SCALAR"
        },
        {
            "bufferView" : 1,
            "componentType" : 5126,
            "count" : 716,
            "max" : [
                71.04486083984375,
                4202.39892578125,
                2533.0
            ],
            "min" : [
                -71.04486083984375,
                -34.25911331176758,
                -291.9463195800781
            ],
            "type" : "VEC3"
        },
        {
            "bufferView" : 2,
            "componentType" : 5126,
            "count" : 716,
            "max" : [
                0.0,
                -0.0,
                1.0
            ],
            "min" : [
                0.0,
                -0.576432466506958,
                -1.0
            ],
            "type" : "VEC3"
        },
        {
            "bufferView" : 3,
            "componentType" : 5123,
            "count" : 8592,
            "max" : [
                5727
            ],
            "min" : [
                0
            ],
            "type" : "SCALAR"
        },
        {
            "bufferView" : 4,
            "componentType" : 5126,
            "count" : 5728,
            "max" : [
                71.04486083984375,
                4202.39892578125,
                2533.39990234375
            ],
            "min" : [
                -71.04486083984375,
                -34.25911331176758,
                -292.3463134765625
            ],
            "type" : "VEC3"
        },
        {
            "bufferView" : 5,
            "componentType" : 5126,
            "count" : 5728,
            "max" : [
                0.7071325182914734,
                0.9854177236557007,
                0.985420823097229
            ],
            "min" : [
                -0.7071325182914734,
                -0.9854177236557007,
                -0.985420823097229
            ],
            "type" : "VEC3"
        },
        {
            "bufferView" : 6,
            "componentType" : 5123,
            "count" : 11328,
            "max" : [
                7551
            ],
            "min" : [
                0
            ],
            "type" : "SCALAR"
        },
        {
            "bufferView" : 7,
            "componentType" : 5126,
            "count" : 7552,
            "max" : [
                65.57872772216797,
                4215.1767578125,
                2601.376708984375
            ],
            "min" : [
                -65.57872772216797,
                -16.061351776123047,
                -301.9215087890625
            ],
            "type" : "VEC3"
        },
        {
            "bufferView" : 8,
            "componentType" : 5126,
            "count" : 7552,
            "max" : [
                0.9958946704864502,
                0.8848164677619934,
                0.986772894859314
            ],
            "min" : [
                -0.9958946704864502,
                -0.9392936825752258,
                -0.9299482703208923
            ],
            "type" : "VEC3"
        },
        {
            "bufferView" : 9,
            "componentType" : 5123,
            "count" : 768,
            "max" : [
                139
            ],
            "min" : [
                0
            ],
            "type" : "SCALAR"
        },
        {
            "bufferView" : 10,
            "componentType" : 5126,
            "count" : 140,
            "max" : [
                92.96102142333984,
                -4204.10205078125,
                2541.667236328125
            ],
            "min" : [
                -92.96102142333984,
                -5138.11083984375,
                1812.1680908203125
            ],
            "type" : "VEC3"
        },
        {
            "bufferView" : 11,
            "componentType" : 5126,
            "count" : 140,
            "max" : [
                0.9105807542800903,
                0.6891689896583557,
                0.7366557717323303
            ],
            "min" : [
                -0.9105807542800903,
                -0.7072664499282837,
                -0.7208166718482971
            ],
            "type" : "VEC3"
        },
        {
            "bufferView" : 12,
            "componentType" : 5126,
            "count" : 140,
            "max" : [
                1.0,
                0.0,
                -0.0,
                -1.0
            ],
            "min" : [
                1.0,
                0.0,
                -0.0,
                -1.0
            ],
            "type" : "VEC4"
        },
        {
            "bufferView" : 13,
            "componentType" : 5126,
            "count" : 140,
            "max" : [
                1.0,
                1.0
            ],
            "min" : [
                0.0,
                0.0
            ],
            "type" : "VEC2"
        },
        {
            "bufferView" : 14,
            "componentType" : 5126,
            "count" : 330,
            "max" : [
                16.45
            ],
            "min" : [
                0.0
            ],
            "type" : "SCALAR"
        },
        {
            "bufferView" : 15,
            "componentType" : 5126,
            "count" : 330,
            "max" : [
                0.0,
                -22.649307250976562,
                212.95211791992188
            ],
            "min" : [
                0.0,
                -149.3489532470703,
                1.48991060256958
            ],
            "type" : "VEC3"
        },
        {
            "bufferView" : 16,
            "componentType" : 5126,
            "count" : 334,
            "max" : [
                16.689999999999998
            ],
            "min" : [
                0.04
            ],
            "type" : "SCALAR"
        },
        {
            "bufferView" : 17,
            "componentType" : 5126,
            "count" : 334,
            "max" : [
                4.008597542792813e-08,
                0.917060136795044,
                -0.3987491726875305,
                -1.7429877985364328e-08
            ],
            "min" : [
                3.12839247840202e-08,
                0.7156927585601807,
                -0.6984152793884277,
                -3.0528703121035505e-08
            ],
            "type" : "VEC4"
        }
    ],
    "animations" : [
        {
            "channels" : [
                {
                    "sampler" : 0,
                    "target" : {
                        "node" : 1,
                        "path" : "translation"
                    }
                },
                {
                    "sampler" : 1,
                    "target" : {
                        "node" : 1,
                        "path" : "rotation"
                    }
                }
            ],
            "name" : "CameraAction",
            "samplers" : [
                {
                    "input" : 14,
                    "interpolation" : "LINEAR",
                    "output" : 15
                },
                {
                    "input" : 16,
                    "interpolation" : "LINEAR",
                    "output" : 17
                }
            ]
        }
    ],
    "asset" : {
        "generator" : "Khronos Blender glTF 2.0 exporter",
        "version" : "2.0"
    },
    "bufferViews" : [
        {
            "buffer" : 0,
            "byteLength" : 2148,
            "byteOffset" : 0,
            "target" : 34963
        },
        {
            "buffer" : 0,
            "byteLength" : 8592,
            "byteOffset" : 2148,
            "target" : 34962
        },
        {
            "buffer" : 0,
            "byteLength" : 8592,
            "byteOffset" : 10740,
            "target" : 34962
        },
        {
            "buffer" : 0,
            "byteLength" : 17184,
            "byteOffset" : 19332,
            "target" : 34963
        },
        {
            "buffer" : 0,
            "byteLength" : 68736,
            "byteOffset" : 36516,
            "target" : 34962
        },
        {
            "buffer" : 0,
            "byteLength" : 68736,
            "byteOffset" : 105252,
            "target" : 34962
        },
        {
            "buffer" : 0,
            "byteLength" : 22656,
            "byteOffset" : 173988,
            "target" : 34963
        },
        {
            "buffer" : 0,
            "byteLength" : 90624,
            "byteOffset" : 196644,
            "target" : 34962
        },
        {
            "buffer" : 0,
            "byteLength" : 90624,
            "byteOffset" : 287268,
            "target" : 34962
        },
        {
            "buffer" : 0,
            "byteLength" : 1536,
            "byteOffset" : 377892,
            "target" : 34963
        },
        {
            "buffer" : 0,
            "byteLength" : 1680,
            "byteOffset" : 379428,
            "target" : 34962
        },
        {
            "buffer" : 0,
            "byteLength" : 1680,
            "byteOffset" : 381108,
            "target" : 34962
        },
        {
            "buffer" : 0,
            "byteLength" : 2240,
            "byteOffset" : 382788,
            "target" : 34962
        },
        {
            "buffer" : 0,
            "byteLength" : 1120,
            "byteOffset" : 385028,
            "target" : 34962
        },
        {
            "buffer" : 0,
            "byteLength" : 1320,
            "byteOffset" : 386148
        },
        {
            "buffer" : 0,
            "byteLength" : 3960,
            "byteOffset" : 387468
        },
        {
            "buffer" : 0,
            "byteLength" : 1336,
            "byteOffset" : 391428
        },
        {
            "buffer" : 0,
            "byteLength" : 5344,
            "byteOffset" : 392764
        }
    ],
    "buffers" : [
        {
            "byteLength" : 398108,
            "uri" : "Escalier2701.bin"
        }
    ],
    "cameras" : [
        {
            "name" : "Camera.006",
            "perspective" : {
                "aspectRatio" : 1.7777777777777777,
                "yfov" : 0.5033799372418416,
                "znear" : 0.10000000149011612
            },
            "type" : "perspective"
        }
    ],
    "extensionsUsed" : [
        "KHR_materials_unlit"
    ],
    "materials" : [
        {
            "extensions" : {
                "KHR_materials_unlit" : {}
            },
            "name" : "Material",
            "pbrMetallicRoughness" : {
                "baseColorFactor" : [
                    0.800000011920929,
                    0.800000011920929,
                    0.800000011920929,
                    1.0
                ],
                "metallicFactor" : 0.0,
                "roughnessFactor" : 0.9
            }
        },
        {
            "extensions" : {
                "KHR_materials_unlit" : {}
            },
            "name" : "Material.002",
            "pbrMetallicRoughness" : {
                "baseColorFactor" : [
                    0.0,
                    0.0,
                    0.0,
                    1.0
                ],
                "metallicFactor" : 0.0,
                "roughnessFactor" : 0.9
            }
        },
        {
            "extensions" : {
                "KHR_materials_unlit" : {}
            },
            "name" : "Material.003",
            "pbrMetallicRoughness" : {
                "baseColorFactor" : [
                    1.0,
                    1.0,
                    1.0,
                    1.0
                ],
                "metallicFactor" : 0.0,
                "roughnessFactor" : 0.9
            }
        }
    ],
    "meshes" : [
        {
            "name" : "Cloneur.000",
            "primitives" : [
                {
                    "attributes" : {
                        "NORMAL" : 2,
                        "POSITION" : 1
                    },
                    "indices" : 0,
                    "material" : 1
                },
                {
                    "attributes" : {
                        "NORMAL" : 5,
                        "POSITION" : 4
                    },
                    "indices" : 3,
                    "material" : 0
                }
            ]
        },
        {
            "name" : "Cloneur.1",
            "primitives" : [
                {
                    "attributes" : {
                        "NORMAL" : 8,
                        "POSITION" : 7
                    },
                    "indices" : 6,
                    "material" : 0
                }
            ]
        },
        {
            "name" : "Cube.000",
            "primitives" : [
                {
                    "attributes" : {
                        "NORMAL" : 11,
                        "POSITION" : 10,
                        "TANGENT" : 12,
                        "TEXCOORD_0" : 13
                    },
                    "indices" : 9,
                    "material" : 2
                }
            ]
        }
    ],
    "nodes" : [
        {
            "camera" : 0,
            "name" : "Correction_Camera",
            "rotation" : [
                -0.7071067690849304,
                -0.0,
                0.0,
                0.7071067690849304
            ]
        },
        {
            "children" : [
                0
            ],
            "name" : "Camera",
            "rotation" : [
                4.008597542792813e-08,
                0.917060136795044,
                -0.3987491726875305,
                -1.7429881538078007e-08
            ],
            "scale" : [
                1.0,
                0.9999999403953552,
                0.9999999403953552
            ],
            "translation" : [
                0.0,
                -22.649307250976562,
                1.48991060256958
            ]
        },
        {
            "mesh" : 0,
            "name" : "Cloneur.002",
            "rotation" : [
                0.7071068286895752,
                0.0,
                -0.0,
                0.7071067094802856
            ],
            "scale" : [
                0.05000000074505806,
                0.05000000074505806,
                0.05000000074505806
            ],
            "translation" : [
                0.0,
                -28.646799087524414,
                -0.0
            ]
        },
        {
            "mesh" : 1,
            "name" : "Cloneur.1",
            "rotation" : [
                0.7071068286895752,
                0.0,
                -0.0,
                0.7071067094802856
            ],
            "scale" : [
                0.05000000074505806,
                0.05000000074505806,
                0.05000000074505806
            ],
            "translation" : [
                0.0,
                -28.646799087524414,
                -0.0
            ]
        },
        {
            "mesh" : 2,
            "name" : "Cube.000",
            "rotation" : [
                0.7071068286895752,
                0.0,
                -0.0,
                0.7071067094802856
            ],
            "scale" : [
                0.026011453941464424,
                0.05000000074505806,
                0.05000000074505806
            ],
            "translation" : [
                0.0,
                -29.11122703552246,
                463.4949951171875
            ]
        }
    ],
    "scene" : 0,
    "scenes" : [
        {
            "name" : "Scene",
            "nodes" : [
                4,
                3,
                1,
                2
            ]
        }
    ]
}
